<?xml version="1.0" encoding="UTF-8"?>
<!DOCTYPE svg PUBLIC "-//W3C//DTD SVG 1.1//EN" "http://www.w3.org/Graphics/SVG/1.1/DTD/svg11.dtd">
<!-- Creator: CorelDRAW X5 -->
<svg xmlns="http://www.w3.org/2000/svg" xml:space="preserve" width="0.0666654in" height="0.0664213in" style="shape-rendering:geometricPrecision; text-rendering:geometricPrecision; image-rendering:optimizeQuality; fill-rule:evenodd; clip-rule:evenodd"
viewBox="0 0 0.00819893 0.00816891"
 xmlns:xlink="http://www.w3.org/1999/xlink">
 <defs>
  <style type="text/css">
   <![CDATA[
    .fil0 {fill:#252525}
   ]]>
  </style>
 </defs>
 <g id="Layer_x0020_1">
  <metadata id="CorelCorpID_0Corel-Layer"/>
  <g id="_245216768">
   <path id="_245216936" class="fil0" d="M0.00806432 0.00596532c-0.000827494,-0.000784885 -0.000995027,-0.00186271 -0.00115675,-0.00290519 -0.000223215,-0.00143419 -0.000475482,-0.00306013 -0.00280835,-0.00306013 -0.00233238,0 -0.00258465,0.00162594 -0.00280786,0.00306013 -0.000161722,0.00104248 -0.000329255,0.0021203 -0.00115675,0.00290519 -0.000127828,0.000121534 -0.000168985,0.000308918 -0.000103618,0.000473061 6.53667e-005,0.000164143 0.000224184,0.000271635 0.0004014,0.000271635l0.00203169 0c9.34502e-005,0.000819747 0.000790695,0.00145889 0.00163514,0.00145889 0.000844926,0 0.00154217,-0.000639141 0.00163562,-0.00145889l0.00203169 0c0.000176732,0 0.000336033,-0.000107492 0.0004014,-0.000271635 6.53667e-005,-0.000164143 2.42099e-005,-0.000351528 -0.000103618,-0.000473061zm-0.0039651 0.00144824c-0.000426578,0 -0.000784401,-0.00030214 -0.000870588,-0.00070354l0.00174166 0c-8.66714e-005,0.0004014 -0.00044401,0.00070354 -0.000871072,0.00070354zm-0.0027609 -0.00156686c0.000524871,-0.000841052 0.000672551,-0.00179105 0.000806674,-0.00265389 0.00024452,-0.00157316 0.000429968,-0.00232899 0.00195422,-0.00232899 0.00152474,0 0.00171019,0.000755833 0.00195471,0.00232899 0.000133639,0.000862841 0.000281319,0.00181284 0.000806674,0.00265389l-0.00552228 0z"/>
  </g>
 </g>
</svg>
