<?xml version="1.0" encoding="UTF-8"?>
<!DOCTYPE svg PUBLIC "-//W3C//DTD SVG 1.1//EN" "http://www.w3.org/Graphics/SVG/1.1/DTD/svg11.dtd">
<!-- Creator: CorelDRAW X5 -->
<svg xmlns="http://www.w3.org/2000/svg" xml:space="preserve" width="0.11665in" height="0.287697in" style="shape-rendering:geometricPrecision; text-rendering:geometricPrecision; image-rendering:optimizeQuality; fill-rule:evenodd; clip-rule:evenodd"
viewBox="0 0 0.0378879 0.0934442"
 xmlns:xlink="http://www.w3.org/1999/xlink">
 <defs>
  <style type="text/css">
   <![CDATA[
    .fil0 {fill:#FEFEFE}
    .fil1 {fill:#252525}
   ]]>
  </style>
 </defs>
 <g id="Layer_x0020_1">
  <metadata id="CorelCorpID_0Corel-Layer"/>
  <g id="_232360776">
   <g>
    <path id="_232361712" class="fil0" d="M0.0170827 0.0461588l-0.0170827 0c0.000181582,-0.00151787 0.00133117,-0.00346923 0.00459836,-0.00589629 0,0 0.00105369,0.00122887 0.0039347,0.00122887 0.0028874,0 0.00383879,-0.00122887 0.00383879,-0.00122887 0.00339634,0.00242706 0.00456128,0.00437842 0.00471089,0.00589629z"/>
    <circle id="_232361640" class="fil0" cx="0.00843717" cy="0.0344775" r="0.00578211"/>
    <path id="_232361568" class="fil0" d="M0.0378879 0.0461588l-0.0160137 0c0.000453954,-0.00136954 0.00166237,-0.00299866 0.00421346,-0.00489759 0,0 0.00101021,0.00117644 0.00377997,0.00117644 0.00277487,0 0.00368918,-0.00117644 0.00368918,-0.00117644 0.00265212,0.00189894 0.0038925,0.00352806 0.00433111,0.00489759z"/>
    <circle id="_232361496" class="fil0" cx="0.0297749" cy="0.035703" r="0.0055554"/>
    <path id="_232361400" class="fil0" d="M0.0240238 0.00330428l-0.000727605 -0.000635536c-0.00205878,-0.00166365 -0.00475309,-0.00266874 -0.00768397,-0.00266874 -0.00650625,0 -0.0117734,0.0049091 -0.0117734,0.0109716 0,0.00184011 0.000620191,0.00350248 0.00134268,0.0050958 0.00200507,0.0044219 -0.000482087,0.00996014 -0.000594616,0.0102069 0.00294623,-0.00444364 0.0101762,-0.00432599 0.0110253,-0.00432599 0.0064973,0 0.0117632,-0.00490782 0.0117632,-0.0109767 0,-0.00298843 -0.00127747,-0.00569936 -0.00335159,-0.00766735zm-0.00390401 0.012501l-0.00945887 0c-0.000588222,0 -0.00106392,-0.000475693 -0.00106392,-0.00106392 0,-0.000294111 0.000117644,-0.000561369 0.000310735,-0.00075318 0.000191812,-0.00019309 0.000459069,-0.000310735 0.00075318,-0.000310735l0.00945887 0c0.000589501,0 0.00106392,0.000475693 0.00106392,0.00106392 0,0.000588222 -0.000475693,0.00106392 -0.00106392,0.00106392zm0 -0.00338995l-0.00945887 0c-0.000588222,0 -0.00106392,-0.000475693 -0.00106392,-0.00106392 0,-0.000288996 0.000117644,-0.000556254 0.000310735,-0.000748065 0.000191812,-0.00019309 0.000459069,-0.000310735 0.00075318,-0.000310735l0.00945887 0c0.000589501,0 0.00106392,0.000475693 0.00106392,0.0010588 0,0.000588222 -0.000475693,0.00106392 -0.00106392,0.00106392zm0 -0.00317001l-0.00945887 0c-0.000588222,0 -0.00106392,-0.000475693 -0.00106392,-0.00106392 0,-0.000294111 0.000117644,-0.000561369 0.000310735,-0.000754459 0.000191812,-0.000191812 0.000459069,-0.000309456 0.00075318,-0.000309456l0.00945887 0c0.000589501,0 0.00106392,0.000475693 0.00106392,0.00106392 0,0.000588222 -0.000475693,0.00106392 -0.00106392,0.00106392z"/>
    <path id="_232361352" class="fil0" d="M0.0289124 0.0269099c-0.00231708,-0.00365337 -0.00609577,-0.00262143 -0.00907908,-0.00262143 -0.00176595,0 -0.00344366,-0.000364442 -0.00494874,-0.00102044 0.00112274,-0.000140662 0.00214318,-0.000255749 0.00291426,-0.000255749 0.00649858,0 0.0117708,-0.00491677 0.0117708,-0.0109742 0,-0.00338611 -0.00164447,-0.00641418 -0.00422753,-0.00842309 0.0037237,0.00183756 0.00626201,0.00549093 0.00626201,0.00969927 0,0.00183628 -0.000624027,0.00349992 -0.00134524,0.00508812 -0.00205366,0.00452803 -0.00134652,0.00850749 -0.00134652,0.00850749z"/>
   </g>
   <g>
    <path id="_232361232" class="fil1" d="M0.0170827 0.0934442l-0.0170827 0c0.000181582,-0.00151787 0.00133117,-0.00346923 0.00459836,-0.00589629 0,0 0.00105369,0.00122887 0.0039347,0.00122887 0.0028874,0 0.00383879,-0.00122887 0.00383879,-0.00122887 0.00339634,0.00242706 0.00456128,0.00437842 0.00471089,0.00589629z"/>
    <circle id="_232361160" class="fil1" cx="0.00843717" cy="0.081763" r="0.00578211"/>
    <path id="_232361088" class="fil1" d="M0.0378879 0.0934442l-0.0160137 0c0.000453954,-0.00136954 0.00166237,-0.00299866 0.00421346,-0.00489759 0,0 0.00101021,0.00117644 0.00377997,0.00117644 0.00277487,0 0.00368918,-0.00117644 0.00368918,-0.00117644 0.00265212,0.00189894 0.0038925,0.00352806 0.00433111,0.00489759z"/>
    <circle id="_232361016" class="fil1" cx="0.0297749" cy="0.0829884" r="0.0055554"/>
    <path id="_232360920" class="fil1" d="M0.0240238 0.0505897l-0.000727605 -0.000635536c-0.00205878,-0.00166365 -0.00475309,-0.00266874 -0.00768397,-0.00266874 -0.00650625,0 -0.0117734,0.0049091 -0.0117734,0.0109716 0,0.00184011 0.000620191,0.00350248 0.00134268,0.0050958 0.00200507,0.0044219 -0.000482087,0.00996014 -0.000594616,0.0102069 0.00294623,-0.00444364 0.0101762,-0.00432599 0.0110253,-0.00432599 0.0064973,0 0.0117632,-0.00490782 0.0117632,-0.0109767 0,-0.00298843 -0.00127747,-0.00569936 -0.00335159,-0.00766735zm-0.00390401 0.012501l-0.00945887 0c-0.000588222,0 -0.00106392,-0.000475693 -0.00106392,-0.00106392 0,-0.000294111 0.000117644,-0.000561369 0.000310735,-0.00075318 0.000191812,-0.00019309 0.000459069,-0.000310735 0.00075318,-0.000310735l0.00945887 0c0.000589501,0 0.00106392,0.000475693 0.00106392,0.00106392 0,0.000588222 -0.000475693,0.00106392 -0.00106392,0.00106392zm0 -0.00338995l-0.00945887 0c-0.000588222,0 -0.00106392,-0.000475693 -0.00106392,-0.00106392 0,-0.000288996 0.000117644,-0.000556254 0.000310735,-0.000748065 0.000191812,-0.00019309 0.000459069,-0.000310735 0.00075318,-0.000310735l0.00945887 0c0.000589501,0 0.00106392,0.000475693 0.00106392,0.0010588 0,0.000588222 -0.000475693,0.00106392 -0.00106392,0.00106392zm0 -0.00317001l-0.00945887 0c-0.000588222,0 -0.00106392,-0.000475693 -0.00106392,-0.00106392 0,-0.000294111 0.000117644,-0.000561369 0.000310735,-0.000754459 0.000191812,-0.000191812 0.000459069,-0.000309456 0.00075318,-0.000309456l0.00945887 0c0.000589501,0 0.00106392,0.000475693 0.00106392,0.00106392 0,0.000588222 -0.000475693,0.00106392 -0.00106392,0.00106392z"/>
    <path id="_232360872" class="fil1" d="M0.0289124 0.0741953c-0.00231708,-0.00365337 -0.00609577,-0.00262143 -0.00907908,-0.00262143 -0.00176595,0 -0.00344366,-0.000364442 -0.00494874,-0.00102044 0.00112274,-0.000140662 0.00214318,-0.000255749 0.00291426,-0.000255749 0.00649858,0 0.0117708,-0.00491677 0.0117708,-0.0109742 0,-0.00338611 -0.00164447,-0.00641418 -0.00422753,-0.00842309 0.0037237,0.00183756 0.00626201,0.00549093 0.00626201,0.00969927 0,0.00183628 -0.000624027,0.00349992 -0.00134524,0.00508812 -0.00205366,0.00452803 -0.00134652,0.00850749 -0.00134652,0.00850749z"/>
   </g>
  </g>
 </g>
</svg>
