<?xml version="1.0" encoding="UTF-8"?>
<!DOCTYPE svg PUBLIC "-//W3C//DTD SVG 1.1//EN" "http://www.w3.org/Graphics/SVG/1.1/DTD/svg11.dtd">
<!-- Creator: CorelDRAW X5 -->
<svg xmlns="http://www.w3.org/2000/svg" xml:space="preserve" width="0.116665in" height="0.236681in" style="shape-rendering:geometricPrecision; text-rendering:geometricPrecision; image-rendering:optimizeQuality; fill-rule:evenodd; clip-rule:evenodd"
viewBox="0 0 0.0098552 0.0199934"
 xmlns:xlink="http://www.w3.org/1999/xlink">
 <defs>
  <style type="text/css">
   <![CDATA[
    .fil0 {fill:#FEFEFE}
    .fil1 {fill:#252525}
   ]]>
  </style>
 </defs>
 <g id="Layer_x0020_1">
  <metadata id="CorelCorpID_0Corel-Layer"/>
  <g id="_232362312">
   <g>
    <path id="_232363128" class="fil0" d="M0.00394235 0l0.00197084 0c0.000181253,0 0.000328917,0.000146998 0.000328917,0.000328252l0 0.00197117c0,0.000181253 -0.000147663,0.000328252 -0.000328917,0.000328252l-0.00197084 0c-0.000181586,0 -0.000328584,-0.000146998 -0.000328584,-0.000328252l0 -0.00197117c0,-0.000181253 0.000146998,-0.000328252 0.000328584,-0.000328252z"/>
    <path id="_232363056" class="fil0" d="M0.00755577 0l0.00197151 0c0.000181253,0 0.000327919,0.000146998 0.000327919,0.000328252l0 0.00197117c0,0.000181253 -0.000146666,0.000328252 -0.000327919,0.000328252l-0.00197151 0c-0.000181253,0 -0.000328917,-0.000146998 -0.000328917,-0.000328252l0 -0.00197117c0,-0.000181253 0.000147663,-0.000328252 0.000328917,-0.000328252z"/>
    <path id="_232362984" class="fil0" d="M0.000328917 0l0.00197084 0c0.000181253,0 0.000328584,0.000146998 0.000328584,0.000328252l0 0.00197117c0,0.000181253 -0.000147331,0.000328252 -0.000328584,0.000328252l-0.00197084 0c-0.000181919,0 -0.000328917,-0.000146998 -0.000328917,-0.000328252l0 -0.00197117c0,-0.000181253 0.000146998,-0.000328252 0.000328917,-0.000328252z"/>
    <path id="_232362912" class="fil0" d="M0.00394235 0.0036131l0.00197084 0c0.000181253,0 0.000328917,0.000146998 0.000328917,0.000328584l0 0.00197117c0,0.000181253 -0.000147663,0.000328252 -0.000328917,0.000328252l-0.00197084 0c-0.000181586,0 -0.000328584,-0.000146998 -0.000328584,-0.000328252l0 -0.00197117c0,-0.000181586 0.000146998,-0.000328584 0.000328584,-0.000328584z"/>
    <path id="_232362840" class="fil0" d="M0.00755577 0.0036131l0.00197151 0c0.000181253,0 0.000327919,0.000146998 0.000327919,0.000328584l0 0.00197117c0,0.000181253 -0.000146666,0.000328252 -0.000327919,0.000328252l-0.00197151 0c-0.000181253,0 -0.000328917,-0.000146998 -0.000328917,-0.000328252l0 -0.00197117c0,-0.000181586 0.000147663,-0.000328584 0.000328917,-0.000328584z"/>
    <path id="_232362768" class="fil0" d="M0.000328917 0.0036131l0.00197084 0c0.000181253,0 0.000328584,0.000146998 0.000328584,0.000328584l0 0.00197117c0,0.000181253 -0.000147331,0.000328252 -0.000328584,0.000328252l-0.00197084 0c-0.000181919,0 -0.000328917,-0.000146998 -0.000328917,-0.000328252l0 -0.00197117c0,-0.000181586 0.000146998,-0.000328584 0.000328917,-0.000328584z"/>
    <path id="_232362696" class="fil0" d="M0.00394235 0.00722719l0.00197084 0c0.000181253,0 0.000328917,0.000146998 0.000328917,0.000327919l0 0.00197151c0,0.000181586 -0.000147663,0.000328917 -0.000328917,0.000328917l-0.00197084 0c-0.000181586,0 -0.000328584,-0.000147331 -0.000328584,-0.000328917l0 -0.00197151c0,-0.000180921 0.000146998,-0.000327919 0.000328584,-0.000327919z"/>
    <path id="_232362600" class="fil0" d="M0.00755577 0.00722719l0.00197151 0c0.000181253,0 0.000327919,0.000146998 0.000327919,0.000327919l0 0.00197151c0,0.000181586 -0.000146666,0.000328917 -0.000327919,0.000328917l-0.00197151 0c-0.000181253,0 -0.000328917,-0.000147331 -0.000328917,-0.000328917l0 -0.00197151c0,-0.000180921 0.000147663,-0.000327919 0.000328917,-0.000327919z"/>
    <path id="_232362456" class="fil0" d="M0.000328917 0.00722719l0.00197084 0c0.000181253,0 0.000328584,0.000146998 0.000328584,0.000327919l0 0.00197151c0,0.000181586 -0.000147331,0.000328917 -0.000328584,0.000328917l-0.00197084 0c-0.000181919,0 -0.000328917,-0.000147331 -0.000328917,-0.000328917l0 -0.00197151c0,-0.000180921 0.000146998,-0.000327919 0.000328917,-0.000327919z"/>
   </g>
   <path id="_232362264" class="fil1" d="M0.00394235 0.0101379l0.00197084 0c0.000180921,0 0.000328917,0.000147331 0.000328917,0.000328252l0 0.00197117c0,0.000181253 -0.000147996,0.000328252 -0.000328917,0.000328252l-0.00197084 0c-0.000181586,0 -0.000328584,-0.000146998 -0.000328584,-0.000328252l0 -0.00197117c0,-0.000180921 0.000146998,-0.000328252 0.000328584,-0.000328252zm-0.00361343 0.00722719l0.00197051 0c0.000181586,0 0.000329249,0.000146998 0.000329249,0.000327919l0 0.00197151c0,0.000181586 -0.000147663,0.000328917 -0.000329249,0.000328917l-0.00197051 0c-0.000181919,0 -0.000328917,-0.000147331 -0.000328917,-0.000328917l0 -0.00197151c0,-0.000180921 0.000146998,-0.000327919 0.000328917,-0.000327919zm0.00722686 0l0.00197151 0c0.000181253,0 0.000327919,0.000146998 0.000327919,0.000327919l0 0.00197151c0,0.000181586 -0.000146666,0.000328917 -0.000327919,0.000328917l-0.00197151 0c-0.000180921,0 -0.000328917,-0.000147331 -0.000328917,-0.000328917l0 -0.00197151c0,-0.000180921 0.000147996,-0.000327919 0.000328917,-0.000327919zm-0.00361343 0l0.00197084 0c0.000180921,0 0.000328917,0.000146998 0.000328917,0.000327919l0 0.00197151c0,0.000181586 -0.000147996,0.000328917 -0.000328917,0.000328917l-0.00197084 0c-0.000181586,0 -0.000328584,-0.000147331 -0.000328584,-0.000328917l0 -0.00197151c0,-0.000180921 0.000146998,-0.000327919 0.000328584,-0.000327919zm-0.00361343 -0.00361409l0.00197051 0c0.000181586,0 0.000329249,0.000146998 0.000329249,0.000328917l0 0.00197117c0,0.000180921 -0.000147663,0.000327586 -0.000329249,0.000327586l-0.00197051 0c-0.000181919,0 -0.000328917,-0.000146666 -0.000328917,-0.000327586l0 -0.00197117c0,-0.000181919 0.000146998,-0.000328917 0.000328917,-0.000328917zm0.00722686 0l0.00197151 0c0.000181253,0 0.000327919,0.000146998 0.000327919,0.000328917l0 0.00197117c0,0.000180921 -0.000146666,0.000327586 -0.000327919,0.000327586l-0.00197151 0c-0.000180921,0 -0.000328917,-0.000146666 -0.000328917,-0.000327586l0 -0.00197117c0,-0.000181919 0.000147996,-0.000328917 0.000328917,-0.000328917zm-0.00361343 0l0.00197084 0c0.000180921,0 0.000328917,0.000146998 0.000328917,0.000328917l0 0.00197117c0,0.000180921 -0.000147996,0.000327586 -0.000328917,0.000327586l-0.00197084 0c-0.000181586,0 -0.000328584,-0.000146666 -0.000328584,-0.000327586l0 -0.00197117c0,-0.000181919 0.000146998,-0.000328917 0.000328584,-0.000328917zm-0.00361343 -0.0036131l0.00197051 0c0.000181586,0 0.000329249,0.000147331 0.000329249,0.000328252l0 0.00197117c0,0.000181253 -0.000147663,0.000328252 -0.000329249,0.000328252l-0.00197051 0c-0.000181919,0 -0.000328917,-0.000146998 -0.000328917,-0.000328252l0 -0.00197117c0,-0.000180921 0.000146998,-0.000328252 0.000328917,-0.000328252zm0.00722686 0l0.00197151 0c0.000181253,0 0.000327919,0.000147331 0.000327919,0.000328252l0 0.00197117c0,0.000181253 -0.000146666,0.000328252 -0.000327919,0.000328252l-0.00197151 0c-0.000180921,0 -0.000328917,-0.000146998 -0.000328917,-0.000328252l0 -0.00197117c0,-0.000180921 0.000147996,-0.000328252 0.000328917,-0.000328252z"/>
  </g>
 </g>
</svg>
