<?xml version="1.0" encoding="UTF-8"?>
<!DOCTYPE svg PUBLIC "-//W3C//DTD SVG 1.1//EN" "http://www.w3.org/Graphics/SVG/1.1/DTD/svg11.dtd">
<!-- Creator: CorelDRAW X5 -->
<svg xmlns="http://www.w3.org/2000/svg" xml:space="preserve" width="0.333339in" height="0.956169in" style="shape-rendering:geometricPrecision; text-rendering:geometricPrecision; image-rendering:optimizeQuality; fill-rule:evenodd; clip-rule:evenodd"
viewBox="0 0 0.0278948 0.0800153"
 xmlns:xlink="http://www.w3.org/1999/xlink">
 <defs>
  <style type="text/css">
   <![CDATA[
    .fil0 {fill:#FEFEFE}
    .fil1 {fill:#252525}
   ]]>
  </style>
 </defs>
 <g id="Layer_x0020_1">
  <metadata id="CorelCorpID_0Corel-Layer"/>
  <g id="_273978496">
   <path id="_273979360" class="fil0" d="M0.00595502 0.0223971l0.0077262 0c0.000469153,0 0.000849681,-0.000380528 0.000849681,-0.000850011l-6.91869e-006 -0.00252335c-7.51172e-005,-0.00167202 -0.00149872,-0.0030317 -0.00317535,-0.0030317l-6.62218e-005 0c0.000824313,-0.000498805 0.00138506,-0.00139823 0.00138506,-0.00243241 0,-0.00156725 -0.00127831,-0.00284523 -0.00284885,-0.00284523 -0.00157087,0 -0.00284885,0.00127798 -0.00284885,0.00284523 0,0.00103418 0.000559096,0.00193361 0.00138736,0.00243241l-7.18226e-005 0c-0.00167399,0 -0.00309793,0.00136199 -0.00316415,0.00295197l-1.54847e-005 0.0026034c3.29461e-007,0.000469153 0.000381516,0.000849681 0.000849352,0.000849681zm0.00386425 -0.0105164c0.000928093,0 0.00168223,0.000754137 0.00168223,0.00167894 0,0.000926775 -0.000754137,0.00168322 -0.00168223,0.00168322 -0.000928093,0 -0.00168289,-0.000756444 -0.00168289,-0.00168322 0,-0.000924798 0.000754796,-0.00167894 0.00168289,-0.00167894zm-0.00354303 0.00719972c4.77719e-005,-0.00105889 0.000948849,-0.00192241 0.00200906,-0.00192241l0.00306333 0c0.00106152,0 0.00196359,0.000858577 0.00201597,0.00194745l0 0.00212503 -0.00709034 0 1.97677e-006 -0.00215007zm0.0204526 -0.0141764l-0.00453273 0 0 -0.00197479c0,-0.000323531 -0.000261922,-0.000583147 -0.000583476,-0.000583147l-0.00443949 0c-0.000305081,-0.00133695 -0.00163545,-0.0023461 -0.00322576,-0.0023461 -0.00158998,0 -0.00292035,0.00100914 -0.00322543,0.0023461l-0.00443883 0c-0.000322213,0 -0.000582817,0.000259616 -0.000582817,0.000583147l0 0.00197479 -0.00453438 0c-0.000643768,0 -0.00116596,0.000521538 -0.00116596,0.00116629l0 0.031713c0,0.000644427 0.000522855,0.00116596 0.00116596,0.00116596l0.0255629 0c0.000644427,0 0.00116563,-0.000521538 0.00116563,-0.00116596l0 -0.0317133c6.58923e-007,-0.000644427 -0.000521208,-0.00116596 -0.00116563,-0.00116596zm-0.0127815 -0.00373774c0.000925128,0 0.00170628,0.000494192 0.00199785,0.0011798l-0.00399505 0c0.000291244,-0.000685609 0.00107273,-0.0011798 0.0019972,-0.0011798zm-0.00708079 0.0023461l0.0141632 0 0 0.00404546 -0.0141632 0 0 -0.00404546zm0.0186956 0.0331043l-0.02323 0 0 -0.0293804 0.00336808 0 0 0.000904042c0,0.000323861 0.000260933,0.000583147 0.000582817,0.000583147l0.0153295 0c0.000321225,0 0.000583476,-0.000259945 0.000583476,-0.000583147l0 -0.000904042 0.00336611 0 0 0.0293804zm-0.00923645 -0.0252005l0.0060499 0 0 0.00116629 -0.0060499 0 0 -0.00116629zm0 0.00342574l0.0060499 0 0 0.00116563 -0.0060499 3.29461e-007 0 -0.00116596zm0 0.00342541l0.0060499 0 0 0.00116629 -0.0060499 0 0 -0.00116629zm0 0.00342574l0.0060499 0 0 0.00116629 -0.0060499 0 0 -0.00116629zm-0.011457 0.00342574l0.0175069 0 0 0.00116629 -0.0175069 0 0 -0.00116629zm0 0.00342574l0.0175069 0 0 0.00116596 -0.0175069 0 0 -0.00116596zm0 0.00342607l0.0175069 0 0 0.00116563 -0.0175069 0 0 -0.00116563z"/>
   <path id="_273979504" class="fil1" d="M0.00595502 0.0634632l0.0077262 0c0.000469153,0 0.000849681,-0.000380528 0.000849681,-0.000850011l-6.91869e-006 -0.00252367c-7.51172e-005,-0.00167169 -0.00149872,-0.00303138 -0.00317535,-0.00303138l-6.62218e-005 0c0.000824313,-0.000499134 0.00138506,-0.00139823 0.00138506,-0.00243274 0,-0.00156692 -0.00127831,-0.0028449 -0.00284885,-0.0028449 -0.00157087,0 -0.00284885,0.00127798 -0.00284885,0.0028449 0,0.00103451 0.000559096,0.00193361 0.00138736,0.00243274l-7.18226e-005 0c-0.00167399,0 -0.00309793,0.00136199 -0.00316415,0.00295197l-1.54847e-005 0.0026034c3.29461e-007,0.000469153 0.000381516,0.000849681 0.000849352,0.000849681zm0.00386425 -0.0105164c0.000928093,0 0.00168223,0.000753808 0.00168223,0.00167861 0,0.000927105 -0.000754137,0.00168355 -0.00168223,0.00168355 -0.000928093,0 -0.00168289,-0.000756444 -0.00168289,-0.00168355 0,-0.000924798 0.000754796,-0.00167861 0.00168289,-0.00167861zm-0.00354303 0.00719972c4.77719e-005,-0.00105922 0.000948849,-0.00192241 0.00200906,-0.00192241l0.00306333 0c0.00106152,0 0.00196359,0.000858577 0.00201597,0.00194745l0 0.0021247 -0.00709034 0 1.97677e-006 -0.00214974zm0.0204526 -0.0141764l-0.00453273 0 0 -0.00197479c0,-0.000323531 -0.000261922,-0.000583476 -0.000583476,-0.000583476l-0.00443949 0c-0.000305081,-0.00133663 -0.00163545,-0.00234577 -0.00322576,-0.00234577 -0.00158998,0 -0.00292035,0.00100914 -0.00322543,0.00234577l-0.00443883 0c-0.000322213,0 -0.000582817,0.000259945 -0.000582817,0.000583476l0 0.00197479 -0.00453438 0c-0.000643768,0 -0.00116596,0.000521538 -0.00116596,0.00116629l0 0.031713c0,0.000644427 0.000522855,0.00116596 0.00116596,0.00116596l0.0255629 0c0.000644427,0 0.00116563,-0.000521538 0.00116563,-0.00116596l0 -0.0317133c6.58923e-007,-0.000644427 -0.000521208,-0.00116596 -0.00116563,-0.00116596zm-0.0127815 -0.00373774c0.000925128,0 0.00170628,0.000494192 0.00199785,0.00117947l-0.00399505 0c0.000291244,-0.00068528 0.00107273,-0.00117947 0.0019972,-0.00117947zm-0.00708079 0.00234577l0.0141632 0 0 0.00404579 -0.0141632 0 0 -0.00404579zm0.0186956 0.0331046l-0.02323 0 0 -0.0293804 0.00336808 0 0 0.000904042c0,0.000323531 0.000260933,0.000582817 0.000582817,0.000582817l0.0153295 0c0.000321225,0 0.000583476,-0.000259616 0.000583476,-0.000582817l0 -0.000904042 0.00336611 0 0 0.0293804zm-0.00923645 -0.0252008l0.0060499 0 0 0.00116629 -0.0060499 0 0 -0.00116629zm0 0.00342574l0.0060499 0 0 0.00116596 -0.0060499 0 0 -0.00116596zm0 0.00342541l0.0060499 0 0 0.00116629 -0.0060499 0 0 -0.00116629zm0 0.00342607l0.0060499 0 0 0.00116629 -0.0060499 0 0 -0.00116629zm-0.011457 0.00342574l0.0175069 0 0 0.00116629 -0.0175069 0 0 -0.00116629zm0 0.00342574l0.0175069 0 0 0.00116596 -0.0175069 0 0 -0.00116596zm0 0.00342574l0.0175069 0 0 0.00116596 -0.0175069 0 0 -0.00116596z"/>
  </g>
 </g>
</svg>
