<?xml version="1.0" encoding="UTF-8"?>
<!DOCTYPE svg PUBLIC "-//W3C//DTD SVG 1.1//EN" "http://www.w3.org/Graphics/SVG/1.1/DTD/svg11.dtd">
<!-- Creator: CorelDRAW X5 -->
<svg xmlns="http://www.w3.org/2000/svg" xml:space="preserve" width="0.333331in" height="0.747441in" style="shape-rendering:geometricPrecision; text-rendering:geometricPrecision; image-rendering:optimizeQuality; fill-rule:evenodd; clip-rule:evenodd"
viewBox="0 0 0.0254604 0.0570909"
 xmlns:xlink="http://www.w3.org/1999/xlink">
 <defs>
  <style type="text/css">
   <![CDATA[
    .fil1 {fill:#FEFEFE}
    .fil0 {fill:#252525}
   ]]>
  </style>
 </defs>
 <g id="Layer_x0020_1">
  <metadata id="CorelCorpID_0Corel-Layer"/>
  <g id="_236967848">
   <g>
    <path id="_232747992" class="fil0" d="M0.0243823 0.0570909c-0.00776809,0 -0.0155368,0 -0.0233049,0 -0.000359355,-0.00040356 -0.00071841,-0.000807722 -0.00107746,-0.00121249 0,-0.00493926 0,-0.00987881 0,-0.0148181 0.00040777,-0.0010095 0.00118903,-0.00121549 0.00221086,-0.00120226 0.00358754,4.78138e-005 0.00717568,-7.51789e-006 0.0107629,3.57852e-005 0.000935827,1.14272e-005 0.0015565,-0.000288988 0.00190533,-0.00114663 0.000262525,-0.000646539 0.000750286,-0.000887111 0.00143411,-0.00087388 0.00123293,2.34558e-005 0.00246797,3.9093e-005 0.00369971,-5.11217e-006 0.000826367,-2.97709e-005 0.00137938,0.000267938 0.00168341,0.00103687 0.000283876,0.000717808 0.000826667,0.00105762 0.00158537,0.000965297 0.000968305,-0.000118181 0.00170957,0.000172611 0.00217869,0.00105521 0,0.00502917 0,0.0100583 0,0.0150875 -0.000359355,0.000359656 -0.00071871,0.00071871 -0.00107807,0.00107777z"/>
    <path id="_232747368" class="fil0" d="M0.0210552 0.0324659c-0.00103446,0.000541288 -0.00121519,0.00048746 -0.00163469,-0.000433031 -0.000242076,-0.000529861 -0.000498286,-0.00105341 -0.000715403,-0.00159349 -0.000148253,-0.000368677 -0.000316654,-0.000459794 -0.000711193,-0.000295303 -0.00527064,0.00219823 -0.0105458,0.00438534 -0.0158279,0.0065559 -0.000532267,0.000218921 -0.000334095,0.000476033 -0.000217718,0.000835087 8.66061e-005,0.000268539 0.000103446,0.000632104 -1.65394e-005,0.000867865 -7.33746e-005,0.000144344 -0.000464305,0.000131713 -0.000714801,0.000176219 -5.86396e-005,1.02243e-005 -0.000170205,-1.59379e-005 -0.000184639,-5.35274e-005 -0.000222229,-0.000574066 -0.000533169,-0.00113851 -0.000617069,-0.00173453 -8.02911e-005,-0.000569255 0.000392133,-0.000898538 0.000906658,-0.00111114 0.00471823,-0.00195104 0.00943435,-0.0039078 0.0141511,-0.00586305 0.000786672,-0.000325675 0.00156733,-0.000664281 0.00236002,-0.000973717 0.000881698,-0.000344319 0.00153425,-7.93889e-005 0.0019315,0.000775245 0.000439646,0.000946954 0.000862453,0.00190203 0.00129067,0.00284748z"/>
    <path id="_232747320" class="fil0" d="M0.0245598 0.0385836c-0.000384916,0 -0.0006724,6.37517e-005 -0.000908462,-1.83437e-005 -0.000224635,-7.78854e-005 -0.000502496,-0.000273651 -0.000570458,-0.000479341 -0.0002099,-0.000635112 -0.000293198,-0.00131232 -0.000501894,-0.00194864 -0.000145847,-0.000443556 -0.000416191,-0.000846214 -0.00065947,-0.00132195 -0.00137998,0.000311541 -0.00274974,0.000616768 -0.0041189,0.000929211 -0.00408222,0.000931918 -0.00815782,0.0018915 -0.0122497,0.00277711 -0.000740362,0.000160281 -0.00154538,2.28544e-005 -0.00237205,2.28544e-005 0.000109461,-0.000593011 0.0004622,-0.000863355 0.000941541,-0.00097462 0.00270464,-0.000629097 0.00541168,-0.00124917 0.00811872,-0.00186714 0.00294641,-0.000673002 0.00589433,-0.00134029 0.00884194,-0.00200788 0.00032778,-7.42768e-005 0.000656462,-0.000154568 0.000988753,-0.000195766 0.000662176,-8.20954e-005 0.00123414,0.000244783 0.00140915,0.000877188 0.000374992,0.00135382 0.000702171,0.00272088 0.00108077,0.00420731z"/>
   </g>
   <g>
    <path id="_236302992" class="fil1" d="M0.0243823 0.0283942c-0.00776809,0 -0.0155368,0 -0.0233049,0 -0.000359355,-0.00040356 -0.00071841,-0.000807722 -0.00107746,-0.00121249 0,-0.00493926 0,-0.00987881 0,-0.0148181 0.00040777,-0.0010095 0.00118903,-0.00121549 0.00221086,-0.00120226 0.00358754,4.78138e-005 0.00717568,-7.51789e-006 0.0107629,3.57852e-005 0.000935827,1.14272e-005 0.0015565,-0.000288988 0.00190533,-0.00114663 0.000262525,-0.000646539 0.000750286,-0.000887111 0.00143411,-0.00087388 0.00123293,2.34558e-005 0.00246797,3.9093e-005 0.00369971,-5.11217e-006 0.000826367,-2.97709e-005 0.00137938,0.000267938 0.00168341,0.00103687 0.000283876,0.000717808 0.000826667,0.00105762 0.00158537,0.000965297 0.000968305,-0.000118181 0.00170957,0.000172611 0.00217869,0.00105521 0,0.00502917 0,0.0100583 0,0.0150875 -0.000359355,0.000359656 -0.00071871,0.00071871 -0.00107807,0.00107777z"/>
    <path id="_232747968" class="fil1" d="M0.0210552 0.00376917c-0.00103446,0.000541288 -0.00121519,0.00048746 -0.00163469,-0.000433031 -0.000242076,-0.000529861 -0.000498286,-0.00105341 -0.000715403,-0.00159349 -0.000148253,-0.000368677 -0.000316654,-0.000459794 -0.000711193,-0.000295303 -0.00527064,0.00219823 -0.0105458,0.00438534 -0.0158279,0.0065559 -0.000532267,0.000218921 -0.000334095,0.000476033 -0.000217718,0.000835087 8.66061e-005,0.000268539 0.000103446,0.000632104 -1.65394e-005,0.000867865 -7.33746e-005,0.000144344 -0.000464305,0.000131713 -0.000714801,0.000176219 -5.86396e-005,1.02243e-005 -0.000170205,-1.59379e-005 -0.000184639,-5.35274e-005 -0.000222229,-0.000574066 -0.000533169,-0.00113851 -0.000617069,-0.00173453 -8.02911e-005,-0.000569255 0.000392133,-0.000898538 0.000906658,-0.00111114 0.00471823,-0.00195104 0.00943435,-0.0039078 0.0141511,-0.00586305 0.000786672,-0.000325675 0.00156733,-0.000664281 0.00236002,-0.000973717 0.000881698,-0.000344319 0.00153425,-7.93889e-005 0.0019315,0.000775245 0.000439646,0.000946954 0.000862453,0.00190203 0.00129067,0.00284748z"/>
    <path id="_236303616" class="fil1" d="M0.0245598 0.00988693c-0.000384916,0 -0.0006724,6.37517e-005 -0.000908462,-1.83437e-005 -0.000224635,-7.78854e-005 -0.000502496,-0.000273651 -0.000570458,-0.000479341 -0.0002099,-0.000635112 -0.000293198,-0.00131232 -0.000501894,-0.00194864 -0.000145847,-0.000443556 -0.000416191,-0.000846214 -0.00065947,-0.00132195 -0.00137998,0.000311541 -0.00274974,0.000616768 -0.0041189,0.000929211 -0.00408222,0.000931918 -0.00815782,0.0018915 -0.0122497,0.00277711 -0.000740362,0.000160281 -0.00154538,2.28544e-005 -0.00237205,2.28544e-005 0.000109461,-0.000593011 0.0004622,-0.000863355 0.000941541,-0.00097462 0.00270464,-0.000629097 0.00541168,-0.00124917 0.00811872,-0.00186714 0.00294641,-0.000673002 0.00589433,-0.00134029 0.00884194,-0.00200788 0.00032778,-7.42768e-005 0.000656462,-0.000154568 0.000988753,-0.000195766 0.000662176,-8.20954e-005 0.00123414,0.000244783 0.00140915,0.000877188 0.000374992,0.00135382 0.000702171,0.00272088 0.00108077,0.00420731z"/>
   </g>
  </g>
 </g>
</svg>
