<?xml version="1.0" encoding="UTF-8"?>
<!DOCTYPE svg PUBLIC "-//W3C//DTD SVG 1.1//EN" "http://www.w3.org/Graphics/SVG/1.1/DTD/svg11.dtd">
<!-- Creator: CorelDRAW X5 -->
<svg xmlns="http://www.w3.org/2000/svg" xml:space="preserve" width="0.333335in" height="0.659689in" style="shape-rendering:geometricPrecision; text-rendering:geometricPrecision; image-rendering:optimizeQuality; fill-rule:evenodd; clip-rule:evenodd"
viewBox="0 0 0.232743 0.460613"
 xmlns:xlink="http://www.w3.org/1999/xlink">
 <defs>
  <style type="text/css">
   <![CDATA[
    .fil0 {fill:#FEFEFE}
    .fil1 {fill:#252525}
   ]]>
  </style>
 </defs>
 <g id="Layer_x0020_1">
  <metadata id="CorelCorpID_0Corel-Layer"/>
  <g id="_236622880">
   <g>
    <path id="_232361784" class="fil0" d="M0.107117 0.121959l0.0992197 0.0403652c-0.0164221,0.040357 -0.0556492,0.0667494 -0.0992197,0.0667494 -0.0591596,0 -0.107117,-0.0479577 -0.107117,-0.107115 0,-0.0591596 0.0479577,-0.107117 0.107117,-0.107117l0 0.107117z"/>
    <g>
     <path id="_236623216" class="fil0" d="M0.125626 0.110911l0.0750594 -0.0764201c0.0234483,0.0230332 0.0350296,0.0555558 0.0314065,0.0882267 -0.0014047,0.0126451 -0.00504703,0.0249355 -0.0107593,0.0362996l-0.0957066 -0.0481062z"/>
     <path id="_236622952" class="fil0" d="M0.122827 0.107117l-0.00452198 -0.107021c0.028883,-0.00121777 0.0570292,0.00928312 0.078053,0.0291276l-0.073531 0.0778935z"/>
    </g>
   </g>
   <g>
    <path id="_232752000" class="fil1" d="M0.107117 0.353498l0.0992197 0.0403652c-0.0164221,0.040357 -0.0556492,0.0667494 -0.0992197,0.0667494 -0.0591596,0 -0.107117,-0.0479577 -0.107117,-0.107115 0,-0.0591596 0.0479577,-0.107117 0.107117,-0.107117l0 0.107117z"/>
    <g>
     <path id="_236303064" class="fil1" d="M0.125626 0.34245l0.0750594 -0.0764201c0.0234483,0.0230332 0.0350296,0.0555558 0.0314065,0.0882267 -0.0014047,0.0126451 -0.00504703,0.0249355 -0.0107593,0.0362996l-0.0957066 -0.0481062z"/>
     <path id="_232749096" class="fil1" d="M0.122827 0.338657l-0.00452198 -0.107021c0.028883,-0.00121777 0.0570292,0.00928312 0.078053,0.0291276l-0.073531 0.0778935z"/>
    </g>
   </g>
  </g>
 </g>
</svg>
