<?xml version="1.0" encoding="UTF-8"?>
<!DOCTYPE svg PUBLIC "-//W3C//DTD SVG 1.1//EN" "http://www.w3.org/Graphics/SVG/1.1/DTD/svg11.dtd">
<!-- Creator: CorelDRAW X5 -->
<svg xmlns="http://www.w3.org/2000/svg" xml:space="preserve" width="0.333331in" height="0.746681in" style="shape-rendering:geometricPrecision; text-rendering:geometricPrecision; image-rendering:optimizeQuality; fill-rule:evenodd; clip-rule:evenodd"
viewBox="0 0 0.0597289 0.133796"
 xmlns:xlink="http://www.w3.org/1999/xlink"
 version="1.1"
 enable-background="new 0 0 100 100">
 <defs>
  <style type="text/css">
   <![CDATA[
    .fil0 {fill:#FEFEFE}
    .fil1 {fill:black}
    .fil2 {fill:#252525}
   ]]>
  </style>
 </defs>
 <g id="Layer_x0020_1">
  <metadata id="CorelCorpID_0Corel-Layer"/>
  <g id="_236303496">
   <g>
    <g>
     <path id="_236509688" class="fil0" d="M0.0468845 0.0477635c-0.00218906,-3.31568e-005 -0.00401409,0.00174955 -0.00403596,0.00394002 -2.25749e-005,0.00220599 0.00173544,0.00398658 0.00395413,0.00400422 0.00224479,1.69312e-005 0.00400422,-0.00169805 0.00401974,-0.00392027 1.62257e-005,-0.00222151 -0.0017164,-0.00399152 -0.0039379,-0.00402397zm-6.63137e-005 0.00634636c-0.00129312,-1.48148e-005 -0.00235625,-0.00110194 -0.00234073,-0.00239082 1.41093e-005,-0.00129241 0.00108994,-0.00233862 0.00239435,-0.00232803 0.00129241,1.0582e-005 0.00236966,0.00110264 0.00235131,0.00238094 -1.76366e-005,0.00127689 -0.00112592,0.00235484 -0.00240493,0.00233791z"/>
     <path id="_236509544" class="fil0" d="M0.0597289 0.0535561l0 -0.00400633c0,0 -0.00287759,0.000143915 -0.00399575,-0.000656788 -0.000201057,-0.000652555 -0.00047125,-0.00127336 -0.000798586,-0.00185749 0.000186243,-0.000686417 0.000763313,-0.00174603 0.002285,-0.00329593l-0.00278376 -0.00283315c0,0 -0.00193862,0.00217918 -0.00328535,0.0024134 -0.00058483,-0.000310405 -0.00120282,-0.000559434 -0.00185043,-0.000740033 -0.000345678,-0.000620104 -0.000673719,-0.00178412 -0.000673719,-0.00397459l-0.00393579 0c0,0 0.000142504,0.00293121 -0.000644795,0.00406983 -0.000641268,0.000204585 -0.00125079,0.000479011 -0.00182363,0.00081199 -0.00067513,-0.00018977 -0.0017171,-0.000776011 -0.00323738,-0.00232592l-0.00278306 0.00283385c0,0 0.00213967,0.00197319 0.00237177,0.00334531 -0.000306172,0.000594001 -0.000550968,0.00122539 -0.000728745,0.0018843 -0.000608111,0.000352732 -0.00175308,0.000685712 -0.00390193,0.000685712l-7.05465e-007 0.00400775c0,0 0.00287759,-0.000143915 0.00399575,0.000657493 0.000201057,0.000651849 0.00047125,0.00127266 0.000798586,0.00185608 -0.000186243,0.000687828 -0.000763313,0.00174814 -0.00228359,0.00329664l0.00278165 0.00283315c0,0 0.00193932,-0.00217777 0.00328747,-0.0024141 0.000583419,0.00031111 0.00120282,0.000560845 0.00185043,0.000741444 0.000346383,0.000620104 0.000673719,0.00178483 0.000673719,0.00397388l0.00393508 0c0,0 -0.000141093,-0.0029298 0.000644795,-0.00406912 0.000640562,-0.00020529 0.00125149,-0.000479011 0.00182504,-0.000812695 0.000674424,0.000189065 0.00171569,0.000776717 0.00323597,0.00232451l0.00278306 -0.00283174c0,0 -0.00213967,-0.0019746 -0.00237036,-0.00334673 0.000304761,-0.000594001 0.000549557,-0.00122469 0.000727334,-0.0018843 0.000609522,-0.000351321 0.00175237,-0.000686417 0.00390193,-0.000686417zm-0.0128938 0.00404584c-0.00318306,0 -0.00576294,-0.00262645 -0.00576294,-0.00586735 0,-0.00324161 0.00257988,-0.00586806 0.00576294,-0.00586806 0.00318376,0 0.00576294,0.00262645 0.00576294,0.00586806 0,0.00324091 -0.00257988,0.00586735 -0.00576294,0.00586735z"/>
    </g>
    <path id="_236509808" class="fil0" d="M0.0288182 0.0666114c-0.000409875,0 -0.000819045,0 -0.00122821,0 -0.000380246,-3.73896e-005 -0.00075908,-8.32448e-005 -0.00114003,-0.000108642 -0.00423349,-0.000284302 -0.00847969,-0.000446559 -0.0126991,-0.000883947 -0.00333473,-0.000346383 -0.00661373,-0.0011231 -0.00962254,-0.00274214 -0.00175379,-0.000943912 -0.00341092,-0.00211498 -0.00384267,-0.00421445 -0.000603878,-0.00293121 -0.000359082,-0.00573543 0.00180176,-0.00810438 0.00208324,-0.00228712 0.00451215,-0.00410369 0.00721761,-0.00548852 0.00291851,-0.00149488 0.0059252,-0.0028148 0.00892695,-0.00413261 0.00257636,-0.00113157 0.00363667,-0.00463279 0.00186102,-0.00664759 -0.0025432,-0.00288323 -0.0043245,-0.00618269 -0.00541444,-0.00987227 -0.00128888,-0.00435977 -0.00172486,-0.00878798 -0.000624336,-0.0132571 0.00243315,-0.00988427 0.0152952,-0.0148874 0.0230264,-0.00790614 0.00182715,0.00165149 0.00382574,0.00433649 0.00462221,0.00671673 0.00112874,0.00337847 0.00115414,0.00685077 0.000625747,0.0103421 -0.000753436,0.00496577 -0.00256154,0.00947369 -0.00581938,0.0132895 -0.00123456,0.00144479 -0.00141516,0.00308923 -0.00114074,0.00480774 0.000109347,0.000682184 -1.0582e-005,0.00109982 -0.000368958,0.00160564 -0.00217142,0.00306877 -0.00344831,0.00649451 -0.00371568,0.0102659 -0.000411991,0.00584689 0.00132627,0.0109763 0.00512591,0.015382 0.000135449,0.000156613 0.000244091,0.000337918 0.000447265,0.000622925 -0.00233227,7.26629e-005 -0.00450157,0.00013686 -0.00667088,0.00021305 -0.000457141,1.55202e-005 -0.000912871,7.33683e-005 -0.0013679,0.000112169z"/>
    <path id="_236509472" class="fil0" d="M0.0467801 0.0556922c-0.00221869,-1.69312e-005 -0.00397671,-0.00179682 -0.00395413,-0.00400422 2.11639e-005,-0.00218906 0.00184832,-0.00397247 0.00403455,-0.00393932 0.00222221,3.31568e-005 0.00395554,0.00180246 0.00393932,0.00402327 -1.55202e-005,0.00222221 -0.00177495,0.0039372 -0.00401974,0.00392027zm0.00242186 -0.00393367c1.76366e-005,-0.00127901 -0.00106102,-0.00237107 -0.00235202,-0.00238235 -0.0013044,-1.0582e-005 -0.00238024,0.00103633 -0.00239435,0.00232944 -1.55202e-005,0.00128818 0.00104903,0.00237389 0.00234003,0.00239011 0.00127901,1.55202e-005 0.00238659,-0.00106172 0.00240634,-0.0023372z"/>
   </g>
  </g>
  <g id="_232746528">
   <g>
    <g>
     <path id="_232748424" class="fil1" d="M0.0468845 0.114948c-0.00218906,-3.31568e-005 -0.00401409,0.00174955 -0.00403596,0.00394002 -2.25749e-005,0.00220599 0.00173544,0.00398658 0.00395413,0.00400422 0.00224479,1.69312e-005 0.00400422,-0.00169805 0.00401974,-0.00392027 1.62257e-005,-0.00222151 -0.0017164,-0.00399152 -0.0039379,-0.00402397zm-6.63137e-005 0.00634636c-0.00129312,-1.48148e-005 -0.00235625,-0.00110194 -0.00234073,-0.00239082 1.41093e-005,-0.00129241 0.00108994,-0.00233862 0.00239435,-0.00232803 0.00129241,1.0582e-005 0.00236966,0.00110264 0.00235131,0.00238094 -1.76366e-005,0.00127689 -0.00112592,0.00235484 -0.00240493,0.00233791z"/>
     <path id="_232748184" class="fil2" d="M0.0597289 0.120741l0 -0.00400633c0,0 -0.00287759,0.000143915 -0.00399575,-0.000656788 -0.000201057,-0.000652555 -0.00047125,-0.00127336 -0.000798586,-0.00185749 0.000186243,-0.000686417 0.000763313,-0.00174603 0.002285,-0.00329593l-0.00278376 -0.00283315c0,0 -0.00193862,0.00217918 -0.00328535,0.0024134 -0.00058483,-0.000310405 -0.00120282,-0.000559434 -0.00185043,-0.000740033 -0.000345678,-0.000620104 -0.000673719,-0.00178412 -0.000673719,-0.00397459l-0.00393579 0c0,0 0.000142504,0.00293121 -0.000644795,0.00406983 -0.000641268,0.000204585 -0.00125079,0.000479011 -0.00182363,0.00081199 -0.00067513,-0.00018977 -0.0017171,-0.000776011 -0.00323738,-0.00232592l-0.00278306 0.00283385c0,0 0.00213967,0.00197319 0.00237177,0.00334531 -0.000306172,0.000594001 -0.000550968,0.00122539 -0.000728745,0.0018843 -0.000608111,0.000352732 -0.00175308,0.000685712 -0.00390193,0.000685712l-7.05465e-007 0.00400775c0,0 0.00287759,-0.000143915 0.00399575,0.000657493 0.000201057,0.000651849 0.00047125,0.00127266 0.000798586,0.00185608 -0.000186243,0.000687828 -0.000763313,0.00174814 -0.00228359,0.00329664l0.00278165 0.00283315c0,0 0.00193932,-0.00217777 0.00328747,-0.0024141 0.000583419,0.00031111 0.00120282,0.000560845 0.00185043,0.000741444 0.000346383,0.000620104 0.000673719,0.00178483 0.000673719,0.00397388l0.00393508 0c0,0 -0.000141093,-0.0029298 0.000644795,-0.00406912 0.000640562,-0.00020529 0.00125149,-0.000479011 0.00182504,-0.000812695 0.000674424,0.000189065 0.00171569,0.000776717 0.00323597,0.00232451l0.00278306 -0.00283174c0,0 -0.00213967,-0.0019746 -0.00237036,-0.00334673 0.000304761,-0.000594001 0.000549557,-0.00122469 0.000727334,-0.0018843 0.000609522,-0.000351321 0.00175237,-0.000686417 0.00390193,-0.000686417zm-0.0128938 0.00404584c-0.00318306,0 -0.00576294,-0.00262645 -0.00576294,-0.00586735 0,-0.00324161 0.00257988,-0.00586806 0.00576294,-0.00586806 0.00318376,0 0.00576294,0.00262645 0.00576294,0.00586806 0,0.00324091 -0.00257988,0.00586735 -0.00576294,0.00586735z"/>
    </g>
    <path id="_236622400" class="fil2" d="M0.0288182 0.133796c-0.000409875,0 -0.000819045,0 -0.00122821,0 -0.000380246,-3.73896e-005 -0.00075908,-8.32448e-005 -0.00114003,-0.000108642 -0.00423349,-0.000284302 -0.00847969,-0.000446559 -0.0126991,-0.000883947 -0.00333473,-0.000346383 -0.00661373,-0.0011231 -0.00962254,-0.00274214 -0.00175379,-0.000943912 -0.00341092,-0.00211498 -0.00384267,-0.00421445 -0.000603878,-0.00293121 -0.000359082,-0.00573543 0.00180176,-0.00810438 0.00208324,-0.00228712 0.00451215,-0.00410369 0.00721761,-0.00548852 0.00291851,-0.00149488 0.0059252,-0.0028148 0.00892695,-0.00413261 0.00257636,-0.00113157 0.00363667,-0.00463279 0.00186102,-0.00664759 -0.0025432,-0.00288323 -0.0043245,-0.00618269 -0.00541444,-0.00987227 -0.00128888,-0.00435977 -0.00172486,-0.00878798 -0.000624336,-0.0132571 0.00243315,-0.00988427 0.0152952,-0.0148874 0.0230264,-0.00790614 0.00182715,0.00165149 0.00382574,0.00433649 0.00462221,0.00671673 0.00112874,0.00337847 0.00115414,0.00685077 0.000625747,0.0103421 -0.000753436,0.00496577 -0.00256154,0.00947369 -0.00581938,0.0132895 -0.00123456,0.00144479 -0.00141516,0.00308923 -0.00114074,0.00480774 0.000109347,0.000682184 -1.0582e-005,0.00109982 -0.000368958,0.00160564 -0.00217142,0.00306877 -0.00344831,0.00649451 -0.00371568,0.0102659 -0.000411991,0.00584689 0.00132627,0.0109763 0.00512591,0.015382 0.000135449,0.000156613 0.000244091,0.000337918 0.000447265,0.000622925 -0.00233227,7.26629e-005 -0.00450157,0.00013686 -0.00667088,0.00021305 -0.000457141,1.55202e-005 -0.000912871,7.33683e-005 -0.0013679,0.000112169z"/>
    <path id="_236303424" class="fil2" d="M0.0467801 0.122877c-0.00221869,-1.69312e-005 -0.00397671,-0.00179682 -0.00395413,-0.00400422 2.11639e-005,-0.00218906 0.00184832,-0.00397247 0.00403455,-0.00393932 0.00222221,3.31568e-005 0.00395554,0.00180246 0.00393932,0.00402327 -1.55202e-005,0.00222221 -0.00177495,0.0039372 -0.00401974,0.00392027zm0.00242186 -0.00393367c1.76366e-005,-0.00127901 -0.00106102,-0.00237107 -0.00235202,-0.00238235 -0.0013044,-1.0582e-005 -0.00238024,0.00103633 -0.00239435,0.00232944 -1.55202e-005,0.00128818 0.00104903,0.00237389 0.00234003,0.00239011 0.00127901,1.55202e-005 0.00238659,-0.00106172 0.00240634,-0.0023372z"/>
   </g>
  </g>
 </g>
</svg>
