<?xml version="1.0" encoding="UTF-8"?>
<!DOCTYPE svg PUBLIC "-//W3C//DTD SVG 1.1//EN" "http://www.w3.org/Graphics/SVG/1.1/DTD/svg11.dtd">
<!-- Creator: CorelDRAW X5 -->
<svg xmlns="http://www.w3.org/2000/svg" xml:space="preserve" width="0.0735945in" height="0.0489449in" style="shape-rendering:geometricPrecision; text-rendering:geometricPrecision; image-rendering:optimizeQuality; fill-rule:evenodd; clip-rule:evenodd"
viewBox="0 0 0.174051 0.115755"
 xmlns:xlink="http://www.w3.org/1999/xlink">
 <defs>
  <style type="text/css">
   <![CDATA[
    .fil1 {fill:#252525}
    .fil0 {fill:#30C165}
   ]]>
  </style>
 </defs>
 <g id="Layer_x0020_1">
  <metadata id="CorelCorpID_0Corel-Layer"/>
  <g id="_249246136">
   <path id="_245209112" class="fil0" d="M0.0962576 0.0266482c0,0.00493485 0.00141528,0.00964624 0.00347302,0.0127189 0.00390133,-8.37994e-005 0.00911551,-0.00256054 0.0106984,-0.00491623 -0.00200187,-0.00377097 -0.00231845,-0.00379891 -0.00231845,-0.00837994 0,-0.00801681 0.00911551,-0.0141621 0.0182124,-0.0141621l0.0170578 0c0.00433895,0 0.00755126,0.00111733 0.0104097,0.00259778 0.00131286,0.000679706 0.002784,0.0017691 0.00383615,0.00281194 0.00627564,0.00627564 0.00527005,0.0163781 -0.00291436,0.0215364 -0.00940415,0.00592182 -0.0268437,0.00157357 -0.0290598,0.00359406 -0.000689017,0.000633151 -0.00158288,0.00277469 -0.00648049,0.00681568 -0.00103353,0.000847305 -0.00323093,0.00200187 -0.00383615,0.00282125 0.00439481,0.000363131 0.00357544,0.00173185 0.0150373,0.00173185 0.0133427,0 0.022542,0.000931104 0.0324211,-0.00631289 0.00572629,-0.00419928 0.0106518,-0.011825 0.0106518,-0.0194135l0 -0.00230914c0,-0.00806336 -0.0054842,-0.0155494 -0.0101583,-0.0190411 -0.0104842,-0.00782128 -0.0195066,-0.00668533 -0.0334918,-0.00668533 -0.0133055,0 -0.0233521,0.00337991 -0.0302981,0.0147952 -0.00170392,0.00279331 -0.00324024,0.00736504 -0.00324024,0.0117971zm-0.0317879 -0.0248605c0.000316575,0.000437619 0.00937622,0.00626633 0.0104004,0.0101211l0.0237059 0c0.00102421,-0.00383615 0.0100839,-0.00967417 0.0104004,-0.0101211 -0.000959037,-7.44883e-005 -0.00392926,-0.00105215 -0.00642462,-0.00136872 -0.00459034,-0.000586596 -0.0267599,-0.000530729 -0.0316855,-3.72442e-005 -0.00229983,0.000232776 -0.00432964,0.000931104 -0.00639669,0.00140597zm-0.019367 0.0248605c0,0.0124489 0.0092738,0.022691 0.0202888,0.0256705 0.00178772,0.000484174 0.00424584,0.00117319 0.00629427,0.00121975l0.0222627 0.000279331c0.00897585,0 0.0165923,-0.00089386 0.0237432,-0.00661084 0.005568,-0.00444137 0.0103632,-0.0109684 0.0103632,-0.0205588 0,-0.00457172 -0.00163874,-0.00942278 -0.00346371,-0.0121416 -0.00398513,9.31104e-005 -0.00908758,0.00251398 -0.0106984,0.00491623 0.00199256,0.00377097 0.00231845,0.00379891 0.00231845,0.00837994 0,0.00417135 -0.00304471,0.00822165 -0.0060708,0.0104097 -0.00322162,0.00232776 -0.0071695,0.00375235 -0.0127189,0.00375235l-0.0216854 0c-0.00961831,0 -0.0187897,-0.00589389 -0.0187897,-0.0141621 0,-0.00417135 0.000335198,-0.00527936 0.00260709,-0.00866858 -0.000847305,-0.000567974 -0.0010987,-0.00105215 -0.00207636,-0.0016853 -0.00227189,-0.00148046 -0.00601493,-0.00294229 -0.00891067,-0.00294229 -0.00182496,0.00271882 -0.00346371,0.00756988 -0.00346371,0.0121416zm-0.0451027 -0.00144321l0 0.00288642c0,0.00826821 0.00564249,0.0156984 0.0104935,0.0192925 0.00995351,0.00737435 0.0191063,0.00643393 0.0325793,0.00643393 0.00757919,0 0.00797025,-0.000158288 0.0147487,-0.00173185 -0.000540041,-0.000735572 -0.00197394,-0.00148977 -0.00283987,-0.00207636 -0.00211361,-0.00142459 -0.0070019,-0.00591251 -0.00756988,-0.00804474 -0.0106611,0 -0.0281845,0.00248605 -0.033827,-0.00837063 -0.00140597,-0.00269089 -0.00214154,-0.00445068 -0.00173185,-0.00810061 0.000940415,-0.00852892 0.00941347,-0.0135848 0.0182124,-0.0135848l0.0170578 0c0.00921793,0 0.0182124,0.00627564 0.0182124,0.0141621 0,0.00417135 -0.000335198,0.00527936 -0.00260709,0.00866858 0.000847305,0.000567974 0.0010987,0.00105215 0.00207636,0.0016853 0.00237432,0.00154563 0.0058194,0.00294229 0.00891067,0.00294229 0.00459034,-0.00685293 0.00452517,-0.0174675 0.000232776,-0.024516 -0.00990695,-0.016285 -0.024665,-0.0147952 -0.0409872,-0.0147952 -0.00741159,0 -0.0120578,0.000707639 -0.0180262,0.00365924 -0.00780265,0.00387339 -0.0149349,0.0127841 -0.0149349,0.0214899z"/>
   <path id="_245492704" class="fil1" d="M0.0968628 0.088548c0,0.00493485 0.00141528,0.00964624 0.00347302,0.0127189 0.00390133,-8.37994e-005 0.00911551,-0.00256054 0.0106984,-0.00491623 -0.00200187,-0.00377097 -0.00231845,-0.00379891 -0.00231845,-0.00837994 0,-0.00801681 0.00911551,-0.0141621 0.0182124,-0.0141621l0.0170578 0c0.00433895,0 0.00755126,0.00111733 0.0104097,0.00259778 0.00131286,0.000679706 0.002784,0.0017691 0.00383615,0.00281194 0.00627564,0.00627564 0.00527005,0.0163781 -0.00291436,0.0215364 -0.00940415,0.00592182 -0.0268437,0.00157357 -0.0290598,0.00359406 -0.000689017,0.000633151 -0.00158288,0.00277469 -0.00648049,0.00681568 -0.00103353,0.000847305 -0.00323093,0.00200187 -0.00383615,0.00282125 0.00439481,0.000363131 0.00357544,0.00173185 0.0150373,0.00173185 0.0133427,0 0.022542,0.000931104 0.0324211,-0.00631289 0.00572629,-0.00419928 0.0106518,-0.011825 0.0106518,-0.0194135l0 -0.00230914c0,-0.00806336 -0.0054842,-0.0155494 -0.0101583,-0.0190411 -0.0104842,-0.00782128 -0.0195066,-0.00668533 -0.0334918,-0.00668533 -0.0133055,0 -0.0233521,0.00337991 -0.0302981,0.0147952 -0.00170392,0.00279331 -0.00324024,0.00736504 -0.00324024,0.0117971zm-0.0317879 -0.0248605c0.000316575,0.000437619 0.00937622,0.00626633 0.0104004,0.0101211l0.0237059 0c0.00102421,-0.00383615 0.0100839,-0.00967417 0.0104004,-0.0101211 -0.000959037,-7.44883e-005 -0.00392926,-0.00105215 -0.00642462,-0.00136872 -0.00459034,-0.000586596 -0.0267599,-0.000530729 -0.0316855,-3.72442e-005 -0.00229983,0.000232776 -0.00432964,0.000931104 -0.00639669,0.00140597zm-0.019367 0.0248605c0,0.0124489 0.0092738,0.022691 0.0202888,0.0256705 0.00178772,0.000484174 0.00424584,0.00117319 0.00629427,0.00121975l0.0222627 0.000279331c0.00897585,0 0.0165923,-0.00089386 0.0237432,-0.00661084 0.005568,-0.00444137 0.0103632,-0.0109684 0.0103632,-0.0205588 0,-0.00457172 -0.00163874,-0.00942278 -0.00346371,-0.0121416 -0.00398513,9.31104e-005 -0.00908758,0.00251398 -0.0106984,0.00491623 0.00199256,0.00377097 0.00231845,0.00379891 0.00231845,0.00837994 0,0.00417135 -0.00304471,0.00822165 -0.0060708,0.0104097 -0.00322162,0.00232776 -0.0071695,0.00375235 -0.0127189,0.00375235l-0.0216854 0c-0.00961831,0 -0.0187897,-0.00589389 -0.0187897,-0.0141621 0,-0.00417135 0.000335198,-0.00527936 0.00260709,-0.00866858 -0.000847305,-0.000567974 -0.0010987,-0.00105215 -0.00207636,-0.0016853 -0.00227189,-0.00148046 -0.00601493,-0.00294229 -0.00891067,-0.00294229 -0.00182496,0.00271882 -0.00346371,0.00756988 -0.00346371,0.0121416zm-0.0451027 -0.00144321l0 0.00288642c0,0.00826821 0.00564249,0.0156984 0.0104935,0.0192925 0.00995351,0.00737435 0.0191063,0.00643393 0.0325793,0.00643393 0.00757919,0 0.00797025,-0.000158288 0.0147487,-0.00173185 -0.000540041,-0.000735572 -0.00197394,-0.00148977 -0.00283987,-0.00207636 -0.00211361,-0.00142459 -0.0070019,-0.00591251 -0.00756988,-0.00804474 -0.0106611,0 -0.0281845,0.00248605 -0.033827,-0.00837063 -0.00140597,-0.00269089 -0.00214154,-0.00445068 -0.00173185,-0.00810061 0.000940415,-0.00852892 0.00941347,-0.0135848 0.0182124,-0.0135848l0.0170578 0c0.00921793,0 0.0182124,0.00627564 0.0182124,0.0141621 0,0.00417135 -0.000335198,0.00527936 -0.00260709,0.00866858 0.000847305,0.000567974 0.0010987,0.00105215 0.00207636,0.0016853 0.00237432,0.00154563 0.0058194,0.00294229 0.00891067,0.00294229 0.00459034,-0.00685293 0.00452517,-0.0174675 0.000232776,-0.024516 -0.00990695,-0.016285 -0.024665,-0.0147952 -0.0409872,-0.0147952 -0.00741159,0 -0.0120578,0.000707639 -0.0180262,0.00365924 -0.00780265,0.00387339 -0.0149349,0.0127841 -0.0149349,0.0214899z"/>
  </g>
 </g>
</svg>
