<?xml version="1.0" encoding="UTF-8"?>
<!DOCTYPE svg PUBLIC "-//W3C//DTD SVG 1.1//EN" "http://www.w3.org/Graphics/SVG/1.1/DTD/svg11.dtd">
<!-- Creator: CorelDRAW X5 -->
<svg xmlns="http://www.w3.org/2000/svg" xml:space="preserve" width="0.0566654in" height="0.0798346in" style="shape-rendering:geometricPrecision; text-rendering:geometricPrecision; image-rendering:optimizeQuality; fill-rule:evenodd; clip-rule:evenodd"
viewBox="0 0 0.00394437 0.00555714"
 xmlns:xlink="http://www.w3.org/1999/xlink">
 <defs>
  <style type="text/css">
   <![CDATA[
    .fil1 {fill:#252525}
    .fil0 {fill:#30C165}
   ]]>
  </style>
 </defs>
 <g id="Layer_x0020_1">
  <metadata id="CorelCorpID_0Corel-Layer"/>
  <g id="_244634488">
   <path id="_249266008" class="fil0" d="M0.00197205 0.00136613l0.00172595 -0.00133297c-4.93286e-005,-2.11017e-005 -0.00010359,-3.31598e-005 -0.000160318,-3.31598e-005l-0.00313127 0c-5.70019e-005,0 -0.000110989,1.20581e-005 -0.000160318,3.31598e-005l0.00172595 0.00133297zm0.000179775 7.78295e-005l-0.000127432 9.83831e-005c-1.53467e-005,1.20581e-005 -3.39819e-005,1.80871e-005 -5.23431e-005,1.80871e-005 -1.83612e-005,0 -3.69964e-005,-6.02905e-006 -5.23431e-005,-1.80871e-005l-0.000127432 -9.83831e-005 -0.0015407 0.00118991c4.76843e-005,1.97314e-005 0.000100027,3.09674e-005 0.000154837,3.09674e-005l0.00313127 0c5.48095e-005,0 0.000107153,-1.12359e-005 0.000154837,-3.09674e-005l-0.0015407 -0.00118991zm0.00168758 -0.00130748c-3.83667e-006,4.38476e-006 -6.85119e-006,9.59166e-006 -1.151e-005,1.31543e-005l-0.00153576 0.00118608 0.00153576 0.0011858c3.56262e-006,3.01452e-006 5.48095e-006,6.85119e-006 8.49547e-006,1.01398e-005 6.63195e-005,-7.23485e-005 0.000107975,-0.000167991 0.000107975,-0.000273499l0 -0.00185147c0,-0.000104138 -4.0559e-005,-0.000198136 -0.00010496,-0.000270211zm-0.00372321 0.00238504l0.00153549 -0.0011858 -0.00153549 -0.00118608c-4.65881e-006,-3.56262e-006 -7.67333e-006,-8.76952e-006 -1.12359e-005,-1.31543e-005 -6.46752e-005,7.20745e-005 -0.00010496,0.000166073 -0.00010496,0.000270211l0 0.00185147c0,0.000105508 4.13812e-005,0.000200877 0.000107701,0.000273225 2.74048e-006,-3.01452e-006 4.93286e-006,-6.85119e-006 8.49547e-006,-9.86571e-006z"/>
   <path id="_249253960" class="fil1" d="M0.00197232 0.00425842l0.00172595 -0.00133297c-4.93286e-005,-2.11017e-005 -0.00010359,-3.31598e-005 -0.000160318,-3.31598e-005l-0.00313127 0c-5.70019e-005,0 -0.000110989,1.20581e-005 -0.000160318,3.31598e-005l0.00172595 0.00133297zm0.000179775 7.78295e-005l-0.000127432 9.83831e-005c-1.53467e-005,1.20581e-005 -3.39819e-005,1.80871e-005 -5.23431e-005,1.80871e-005 -1.83612e-005,0 -3.69964e-005,-6.02905e-006 -5.23431e-005,-1.80871e-005l-0.000127432 -9.83831e-005 -0.0015407 0.00118991c4.76843e-005,1.97314e-005 0.000100027,3.09674e-005 0.000154837,3.09674e-005l0.00313127 0c5.48095e-005,0 0.000107153,-1.12359e-005 0.000154837,-3.09674e-005l-0.0015407 -0.00118991zm0.00168758 -0.00130748c-3.83667e-006,4.38476e-006 -6.85119e-006,9.59166e-006 -1.151e-005,1.31543e-005l-0.00153576 0.00118608 0.00153576 0.0011858c3.56262e-006,3.01452e-006 5.48095e-006,6.85119e-006 8.49547e-006,1.01398e-005 6.63195e-005,-7.23485e-005 0.000107975,-0.000167991 0.000107975,-0.000273499l0 -0.00185147c0,-0.000104138 -4.0559e-005,-0.000198136 -0.00010496,-0.000270211zm-0.00372321 0.00238504l0.00153549 -0.0011858 -0.00153549 -0.00118608c-4.65881e-006,-3.56262e-006 -7.67333e-006,-8.76952e-006 -1.12359e-005,-1.31543e-005 -6.46752e-005,7.20745e-005 -0.00010496,0.000166073 -0.00010496,0.000270211l0 0.00185147c0,0.000105508 4.13812e-005,0.000200877 0.000107701,0.000273225 2.74048e-006,-3.01452e-006 4.93286e-006,-6.85119e-006 8.49547e-006,-9.86571e-006z"/>
  </g>
 </g>
</svg>
