<?xml version="1.0" encoding="UTF-8"?>
<!DOCTYPE svg PUBLIC "-//W3C//DTD SVG 1.1//EN" "http://www.w3.org/Graphics/SVG/1.1/DTD/svg11.dtd">
<!-- Creator: CorelDRAW X5 -->
<svg xmlns="http://www.w3.org/2000/svg" xml:space="preserve" width="0.333331in" height="0.639799in" style="shape-rendering:geometricPrecision; text-rendering:geometricPrecision; image-rendering:optimizeQuality; fill-rule:evenodd; clip-rule:evenodd"
viewBox="0 0 0.0540972 0.103835"
 xmlns:xlink="http://www.w3.org/1999/xlink">
 <defs>
  <style type="text/css">
   <![CDATA[
    .fil1 {fill:#FEFEFE}
    .fil0 {fill:#252525}
   ]]>
  </style>
 </defs>
 <g id="Layer_x0020_1">
  <metadata id="CorelCorpID_0Corel-Layer"/>
  <g id="_236622808">
   <path id="_232752120" class="fil0" d="M0.0102634 0.103835c0.000619142,-0.00352253 0.0012402,-0.00704377 0.00185423,-0.0105663 0.0004134,-0.00236986 0.000795491,-0.00474356 0.00123828,-0.00710831 0.000135457,-0.000722012 1.59737e-005,-0.00123956 -0.000557802,-0.00179289 -0.00402857,-0.00387523 -0.00801753,-0.00778943 -0.0120174,-0.0116928 -0.000228744,-0.000222993 -0.000445347,-0.000458126 -0.000781435,-0.000805076 0.00262927,-0.000385925 0.0051052,-0.000748848 0.00758113,-0.00111113 0.00346566,-0.000506686 0.00692812,-0.00102424 0.0103976,-0.00150664 0.000557802,-7.73128e-005 0.000831911,-0.000306695 0.00106641,-0.000785268 0.00248871,-0.00509817 0.00500361,-0.0101829 0.00751468,-0.0152709 0.000141208,-0.000284971 0.00029775,-0.000563553 0.00051691,-0.000975675 0.000218521,0.000406372 0.00038912,0.000700927 0.000538634,0.00100443 0.0024459,0.00495505 0.00491416,0.00989987 0.00730638,0.0148779 0.000403177,0.00083894 0.00093606,0.00112902 0.00183762,0.00125426 0.00568856,0.000792936 0.011372,0.00163635 0.0170574,0.00246506 5.55886e-005,8.30634e-006 0.000106704,3.96148e-005 0.000281776,0.000106704 -0.00024344,0.000256219 -0.00044982,0.000488157 -0.000674091,0.0007054 -0.00402027,0.00392379 -0.00803287,0.00785588 -0.01208,0.0117554 -0.00054119,0.000520743 -0.000683036,0.00101082 -0.00055908,0.00171111 0.000983981,0.00554416 0.0019341,0.0110941 0.0028906,0.0166414 4.85601e-005,0.000283054 5.23938e-005,0.00057122 8.8175e-005,0.000980787 -0.000393593,-0.00019424 -0.000689426,-0.000330976 -0.000975675,-0.000482406 -0.00500808,-0.00263183 -0.0100111,-0.00527516 -0.0150332,-0.00788207 -0.000332253,-0.000172516 -0.000914336,-0.000226827 -0.0012255,-6.51728e-005 -0.00526877,0.00272767 -0.0105133,0.00549879 -0.0157597,0.0082648 -0.000122678,6.58117e-005 -0.000215326,0.000184017 -0.000320752,0.000276665 -6.1978e-005,6.38949e-007 -0.000123317,6.38949e-007 -0.000185295,6.38949e-007zm0.0280294 -0.00768464c-3.38643e-005,-0.000290083 -4.08927e-005,-0.000403816 -5.94222e-005,-0.000515632 -0.000633837,-0.00372891 -0.00125553,-0.00745973 -0.00192068,-0.0111822 -0.000105427,-0.000585277 1.78906e-005,-0.000968647 0.000454932,-0.00138844 0.00243056,-0.00232769 0.00481959,-0.00469436 0.0072444,-0.00702844 0.000385286,-0.000369951 0.000874721,-0.000641505 0.0013156,-0.000958423 -0.000446625,-0.000331614 -0.000672174,-0.000411483 -0.000904113,-0.000445986 -0.00361645,-0.000530967 -0.00723035,-0.00108238 -0.0108538,-0.00156095 -0.000690065,-9.07307e-005 -0.000998038,-0.000373785 -0.0012664,-0.000925837 -0.00153284,-0.0031628 -0.00309635,-0.00631282 -0.00465219,-0.00946603 -0.000131623,-0.00026772 -0.000280499,-0.000527772 -0.000487518,-0.000914975 -6.45338e-005,0.000245995 -9.07307e-005,0.000301584 -9.07307e-005,0.000356533 -4.47264e-006,0.00920534 -1.214e-005,0.0184094 2.10853e-005,0.0276147 1.2779e-006,0.000302223 0.000350783,0.000721373 0.000657478,0.000884944 0.00313213,0.00168491 0.00628854,0.00332892 0.00943983,0.00498125 0.000317558,0.000165488 0.000640227,0.000321391 0.00110155,0.000549496z"/>
   <path id="_236818656" class="fil1" d="M0.0102634 0.0516156c0.000619142,-0.00352253 0.0012402,-0.00704377 0.00185423,-0.0105663 0.0004134,-0.00236986 0.000795491,-0.00474356 0.00123828,-0.00710831 0.000135457,-0.000722012 1.59737e-005,-0.00123956 -0.000557802,-0.00179289 -0.00402857,-0.00387523 -0.00801753,-0.00778943 -0.0120174,-0.0116928 -0.000228744,-0.000222993 -0.000445347,-0.000458126 -0.000781435,-0.000805076 0.00262927,-0.000385925 0.0051052,-0.000748848 0.00758113,-0.00111113 0.00346566,-0.000506686 0.00692812,-0.00102424 0.0103976,-0.00150664 0.000557802,-7.73128e-005 0.000831911,-0.000306695 0.00106641,-0.000785268 0.00248871,-0.00509817 0.00500361,-0.0101829 0.00751468,-0.0152709 0.000141208,-0.000284971 0.00029775,-0.000563553 0.00051691,-0.000975675 0.000218521,0.000406372 0.00038912,0.000700927 0.000538634,0.00100443 0.0024459,0.00495505 0.00491416,0.00989987 0.00730638,0.0148779 0.000403177,0.00083894 0.00093606,0.00112902 0.00183762,0.00125426 0.00568856,0.000792936 0.011372,0.00163635 0.0170574,0.00246506 5.55886e-005,8.30634e-006 0.000106704,3.96148e-005 0.000281776,0.000106704 -0.00024344,0.000256219 -0.00044982,0.000488157 -0.000674091,0.0007054 -0.00402027,0.00392379 -0.00803287,0.00785588 -0.01208,0.0117554 -0.00054119,0.000520743 -0.000683036,0.00101082 -0.00055908,0.00171111 0.000983981,0.00554416 0.0019341,0.0110941 0.0028906,0.0166414 4.85601e-005,0.000283054 5.23938e-005,0.00057122 8.8175e-005,0.000980787 -0.000393593,-0.00019424 -0.000689426,-0.000330976 -0.000975675,-0.000482406 -0.00500808,-0.00263183 -0.0100111,-0.00527516 -0.0150332,-0.00788207 -0.000332253,-0.000172516 -0.000914336,-0.000226827 -0.0012255,-6.51728e-005 -0.00526877,0.00272767 -0.0105133,0.00549879 -0.0157597,0.0082648 -0.000122678,6.58117e-005 -0.000215326,0.000184017 -0.000320752,0.000276665 -6.1978e-005,6.38949e-007 -0.000123317,6.38949e-007 -0.000185295,6.38949e-007zm0.0280294 -0.00768464c-3.38643e-005,-0.000290083 -4.08927e-005,-0.000403816 -5.94222e-005,-0.000515632 -0.000633837,-0.00372891 -0.00125553,-0.00745973 -0.00192068,-0.0111822 -0.000105427,-0.000585277 1.78906e-005,-0.000968647 0.000454932,-0.00138844 0.00243056,-0.00232769 0.00481959,-0.00469436 0.0072444,-0.00702844 0.000385286,-0.000369951 0.000874721,-0.000641505 0.0013156,-0.000958423 -0.000446625,-0.000331614 -0.000672174,-0.000411483 -0.000904113,-0.000445986 -0.00361645,-0.000530967 -0.00723035,-0.00108238 -0.0108538,-0.00156095 -0.000690065,-9.07307e-005 -0.000998038,-0.000373785 -0.0012664,-0.000925837 -0.00153284,-0.0031628 -0.00309635,-0.00631282 -0.00465219,-0.00946603 -0.000131623,-0.00026772 -0.000280499,-0.000527772 -0.000487518,-0.000914975 -6.45338e-005,0.000245995 -9.07307e-005,0.000301584 -9.07307e-005,0.000356533 -4.47264e-006,0.00920534 -1.214e-005,0.0184094 2.10853e-005,0.0276147 1.2779e-006,0.000302223 0.000350783,0.000721373 0.000657478,0.000884944 0.00313213,0.00168491 0.00628854,0.00332892 0.00943983,0.00498125 0.000317558,0.000165488 0.000640227,0.000321391 0.00110155,0.000549496z"/>
  </g>
 </g>
</svg>
