<?xml version="1.0" encoding="UTF-8"?>
<!DOCTYPE svg PUBLIC "-//W3C//DTD SVG 1.1//EN" "http://www.w3.org/Graphics/SVG/1.1/DTD/svg11.dtd">
<!-- Creator: CorelDRAW X5 -->
<svg xmlns="http://www.w3.org/2000/svg" xml:space="preserve" width="0.116665in" height="0.236571in" style="shape-rendering:geometricPrecision; text-rendering:geometricPrecision; image-rendering:optimizeQuality; fill-rule:evenodd; clip-rule:evenodd"
viewBox="0 0 0.0194558 0.039452"
 xmlns:xlink="http://www.w3.org/1999/xlink">
 <defs>
  <style type="text/css">
   <![CDATA[
    .fil0 {fill:#FEFEFE}
    .fil1 {fill:#252525}
   ]]>
  </style>
 </defs>
 <g id="Layer_x0020_1">
  <metadata id="CorelCorpID_0Corel-Layer"/>
  <g id="_232361784">
   <path id="_232361904" class="fil0" d="M0.0024319 0.00303987l0 -0.0024319c0,-0.000336158 0.000271816,-0.000607974 0.000607974,-0.000607974 0.000336158,0 0.000607974,0.000271816 0.000607974,0.000607974l0 0.0024319c0,0.000336158 -0.000271816,0.000607974 -0.000607974,0.000607974 -0.000336158,0 -0.000607974,-0.000271816 -0.000607974,-0.000607974zm0.0103362 0.000607974c0.000335502,0 0.000607974,-0.000271816 0.000607974,-0.000607974l0 -0.0024319c0,-0.000336158 -0.000272472,-0.000607974 -0.000607974,-0.000607974 -0.000336158,0 -0.000607974,0.000271816 -0.000607974,0.000607974l0 0.0024319c0,0.000336158 0.000271816,0.000607974 0.000607974,0.000607974zm0.00668771 0.0109435c0,0.00268598 -0.00217781,0.00486379 -0.00486379,0.00486379 -0.00268598,0 -0.00486445,-0.00217781 -0.00486445,-0.00486379 0,-0.00268598 0.00217846,-0.00486379 0.00486445,-0.00486379 0.00268598,0 0.00486379,0.00217781 0.00486379,0.00486379zm-0.00121595 0c0,-0.0020117 -0.0016368,-0.00364784 -0.00364784,-0.00364784 -0.0020117,0 -0.0036485,0.00163615 -0.0036485,0.00364784 0,0.0020117 0.0016368,0.00364784 0.0036485,0.00364784 0.00201104,0 0.00364784,-0.00163615 0.00364784,-0.00364784zm-0.0133761 -0.00729569l-0.0024319 0 0 0.0024319 0.0024319 0 0 -0.0024319zm-0.0024319 0.00607974l0.0024319 0 0 -0.0024319 -0.0024319 0 0 0.0024319zm0.00364784 -0.00364784l0.0024319 0 0 -0.0024319 -0.0024319 0 0 0.0024319zm0 0.00364784l0.0024319 0 0 -0.0024319 -0.0024319 0 0 0.0024319zm-0.00486379 0.00109514l0 -0.00839083 0.0133761 0 0 0.0024319 0.00121595 0 0 -0.00474233c0,-0.000738629 -0.000588934,-0.00133741 -0.00131706,-0.00133741l-0.000506864 0 0 0.000607974c0,0.000669691 -0.000545601,0.00121595 -0.00121595,0.00121595 -0.000671004,0 -0.00121595,-0.000546257 -0.00121595,-0.00121595l0 -0.000607974 -0.00729634 0 0 0.000607974c0,0.000669691 -0.000544944,0.00121595 -0.00121595,0.00121595 -0.000671004,0 -0.00121595,-0.000546257 -0.00121595,-0.00121595l0 -0.000607974 -0.000506207 0c-0.000728124,0 -0.00131771,0.000598782 -0.00131771,0.00133741l0 0.0107013c0,0.000736003 0.00058959,0.00133675 0.00131771,0.00133675l0.00719392 0 0 -0.00121595 -0.00719392 0c-5.5151e-005,0 -0.000101767,-5.71207e-005 -0.000101767,-0.000120807zm0.0109442 -0.00474299l0 -0.0024319 -0.00243255 0 0 0.0024319 0.00243255 0zm0.00425582 0.00486379l-0.00182392 0 0 -0.00182392c0,-0.000336158 -0.000272472,-0.000607974 -0.000607974,-0.000607974 -0.000336158,0 -0.000607974,0.000271816 -0.000607974,0.000607974l0 0.0024319c0,0.000336158 0.000271816,0.000607974 0.000607974,0.000607974l0.0024319 0c0.000336158,0 0.000607974,-0.000271816 0.000607974,-0.000607974 0,-0.000336158 -0.000271816,-0.000607974 -0.000607974,-0.000607974z"/>
   <path id="_232361832" class="fil1" d="M0.0024319 0.0230367l0 -0.0024319c0,-0.000336158 0.000271816,-0.000607974 0.000607974,-0.000607974 0.000336158,0 0.000607974,0.000271816 0.000607974,0.000607974l0 0.0024319c0,0.000336158 -0.000271816,0.000607974 -0.000607974,0.000607974 -0.000336158,0 -0.000607974,-0.000271816 -0.000607974,-0.000607974zm0.0103362 0.000607974c0.000335502,0 0.000607974,-0.000271816 0.000607974,-0.000607974l0 -0.0024319c0,-0.000336158 -0.000272472,-0.000607974 -0.000607974,-0.000607974 -0.000336158,0 -0.000607974,0.000271816 -0.000607974,0.000607974l0 0.0024319c0,0.000336158 0.000271816,0.000607974 0.000607974,0.000607974zm0.00668771 0.0109435c0,0.00268598 -0.00217781,0.00486379 -0.00486379,0.00486379 -0.00268598,0 -0.00486445,-0.00217781 -0.00486445,-0.00486379 0,-0.00268598 0.00217846,-0.00486379 0.00486445,-0.00486379 0.00268598,0 0.00486379,0.00217781 0.00486379,0.00486379zm-0.00121595 0c0,-0.0020117 -0.0016368,-0.00364784 -0.00364784,-0.00364784 -0.0020117,0 -0.0036485,0.00163615 -0.0036485,0.00364784 0,0.0020117 0.0016368,0.00364784 0.0036485,0.00364784 0.00201104,0 0.00364784,-0.00163615 0.00364784,-0.00364784zm-0.0133761 -0.00729569l-0.0024319 0 0 0.0024319 0.0024319 0 0 -0.0024319zm-0.0024319 0.00607974l0.0024319 0 0 -0.0024319 -0.0024319 0 0 0.0024319zm0.00364784 -0.00364784l0.0024319 0 0 -0.0024319 -0.0024319 0 0 0.0024319zm0 0.00364784l0.0024319 0 0 -0.0024319 -0.0024319 0 0 0.0024319zm-0.00486379 0.00109514l0 -0.00839083 0.0133761 0 0 0.0024319 0.00121595 0 0 -0.00474233c0,-0.000738629 -0.000588934,-0.00133741 -0.00131706,-0.00133741l-0.000506864 0 0 0.000607974c0,0.000669691 -0.000545601,0.00121595 -0.00121595,0.00121595 -0.000671004,0 -0.00121595,-0.000546257 -0.00121595,-0.00121595l0 -0.000607974 -0.00729634 0 0 0.000607974c0,0.000669691 -0.000544944,0.00121595 -0.00121595,0.00121595 -0.000671004,0 -0.00121595,-0.000546257 -0.00121595,-0.00121595l0 -0.000607974 -0.000506207 0c-0.000728124,0 -0.00131771,0.000598782 -0.00131771,0.00133741l0 0.0107013c0,0.000736003 0.00058959,0.00133675 0.00131771,0.00133675l0.00719392 0 0 -0.00121595 -0.00719392 0c-5.5151e-005,0 -0.000101767,-5.71207e-005 -0.000101767,-0.000120807zm0.0109442 -0.00474299l0 -0.0024319 -0.00243255 0 0 0.0024319 0.00243255 0zm0.00425582 0.00486379l-0.00182392 0 0 -0.00182392c0,-0.000336158 -0.000272472,-0.000607974 -0.000607974,-0.000607974 -0.000336158,0 -0.000607974,0.000271816 -0.000607974,0.000607974l0 0.0024319c0,0.000336158 0.000271816,0.000607974 0.000607974,0.000607974l0.0024319 0c0.000336158,0 0.000607974,-0.000271816 0.000607974,-0.000607974 0,-0.000336158 -0.000271816,-0.000607974 -0.000607974,-0.000607974z"/>
  </g>
 </g>
</svg>
