<?xml version="1.0" encoding="UTF-8"?>
<!DOCTYPE svg PUBLIC "-//W3C//DTD SVG 1.1//EN" "http://www.w3.org/Graphics/SVG/1.1/DTD/svg11.dtd">
<!-- Creator: CorelDRAW X5 -->
<svg xmlns="http://www.w3.org/2000/svg" xml:space="preserve" width="0.333331in" height="0.746724in" style="shape-rendering:geometricPrecision; text-rendering:geometricPrecision; image-rendering:optimizeQuality; fill-rule:evenodd; clip-rule:evenodd"
viewBox="0 0 0.0576432 0.129132"
 xmlns:xlink="http://www.w3.org/1999/xlink">
 <defs>
  <style type="text/css">
   <![CDATA[
    .fil0 {fill:#FEFEFE}
    .fil1 {fill:#252525}
    .fil2 {fill:#30C165}
   ]]>
  </style>
 </defs>
 <g id="Layer_x0020_1">
  <metadata id="CorelCorpID_0Corel-Layer"/>
  <g id="_272744136">
   <g>
    <path id="_272743688" class="fil0" d="M0.0429638 0.0352657c0.00192062,0.0022767 0.00329726,0.00502794 0.00392363,0.00805627 0.00220385,0.000182463 0.00393656,0.00202888 0.00393656,0.00427902 0,0.00237474 -0.00192539,0.00430013 -0.00429877,0.00430013 -0.00237474,0 -0.00429877,-0.00192539 -0.00429877,-0.00430013 0,-0.00200369 0.00137324,-0.00368261 0.00322986,-0.00415715 -0.000699213,-0.00326526 -0.00232776,-0.00621803 -0.00458744,-0.00854034 -0.000165442,-1.90633e-005 -0.000330884,-4.22115e-005 -0.000498368,-5.85515e-005 -7.76147e-005,0.00346815 -0.00521721,0.00626841 -0.0115489,0.00626841 -0.00633173,0 -0.0114713,-0.0027989 -0.0115483,-0.00626773 -0.000367649,3.40415e-005 -0.000731893,8.10189e-005 -0.00109341,0.000135485 -0.00249593,0.00284247 -0.00389367,0.00671844 -0.0040312,0.0113045 0.00364108,0.00031931 0.00653121,0.00482233 0.00653121,0.0103466l-0.00134668 0.0011438c0.000113699,0.000177697 0.000181101,0.000384669 0.000181101,0.000611386 0,0.000620237 -0.000502453,0.00112201 -0.00112201,0.00112201 -0.000619556,0 -0.00112133,-0.000501772 -0.00112133,-0.00112201 0,-0.000618875 0.000502453,-0.00112201 0.00112133,-0.00112201 0.000215823,0 0.000416668,6.33173e-005 0.0005896,0.00017225l0.00115673 -0.000804742c0,-0.00528393 -0.0028663,-0.00956772 -0.00640049,-0.00956772 -0.00353487,0 -0.00640049,0.00428515 -0.00640049,0.0095684l0.00105937 0.000734617c0.000140932,-6.33173e-005 0.000297523,-0.000102805 0.000463646,-0.000102805 0.000619556,0 0.00112269,0.000501772 0.00112269,0.00112065 0,0.000620237 -0.000503134,0.00112201 -0.00112269,0.00112201 -0.000620237,0 -0.00112269,-0.000501772 -0.00112269,-0.00112201 0,-0.000275737 0.000104848,-0.000526963 0.000271652,-0.000722362l-0.00121324 -0.00103146c0,-0.00521585 0.0025749,-0.00951938 0.00592731,-0.0102554 0.000149102,-0.00419392 0.0012609,-0.008027 0.00366968,-0.011039 -0.00826733,0.00206905 -0.0143934,0.00954253 -0.0143934,0.0184512 0,0.0105079 0.00851788,0.0104828 0.0190251,0.0104828l0.019593 0c0.0105079,0 0.0190251,2.58716e-005 0.0190251,-0.0104828 0,-0.0090108 -0.00626637,-0.0165571 -0.0146794,-0.0185234zm-0.00219772 0.0225934l-0.00287651 0 0 0.00287583 -0.00245235 0 0 -0.00287583 -0.00287651 0 0 -0.00245099 0.00287651 0 0 -0.00287855 0.00245235 0 0 0.00287651 0.00287651 0 0 0.00245303z"/>
    <path id="_272743616" class="fil0" d="M0.0426854 0.0129923c-0.00106686,-0.0073557 -0.00710379,-0.0129923 -0.0143914,-0.0129923 -0.00728898,0 -0.0133266,0.00563932 -0.0143907,0.0129984 -0.000109614,0.000757765 -0.000166804,0.00153527 -0.000166804,0.00232572 0,0.000321352 1.2255e-005,0.000638619 2.99566e-005,0.000955206 2.79141e-005,0.000462284 7.14872e-005,0.000919803 0.000136847,0.00136983 1.02125e-005,0.000137528 2.17866e-005,0.000274375 3.40415e-005,0.000410541 0.00091776,0.0103874 0.00699554,0.0184117 0.0143567,0.0184117 0.00745782,0 0.0135976,-0.00823397 0.0143914,-0.0188168 0.000109614,-0.000759807 0.000167484,-0.00153868 0.000167484,-0.00233116 0,-0.000792487 -5.78706e-005,-0.00157068 -0.000167484,-0.00233116zm-0.00161357 0.00289694c-8.8508e-006,0.00062296 -5.6509e-005,0.00123707 -0.000142974,0.00183688 -0.000479986,0.00638756 -0.00317744,0.0118008 -0.00694379,0.0145602 -0.00171229,0.00125409 -0.00364517,0.00196011 -0.00569107,0.00196011 -0.000402371,0 -0.000800657,-2.65524e-005 -0.0011935,-8.10189e-005 -0.000392839,-5.31048e-005 -0.000780232,-0.000132762 -0.00116286,-0.00023761 -0.00343547,-0.000940908 -0.00638415,-0.0038998 -0.00824554,-0.00800385 -0.00103486,-0.00227942 -0.00173408,-0.00491219 -0.00199483,-0.00774786 0.000567132,0.000142294 0.00126226,0.000417349 0.00201866,0.000945674 0,0 -0.00014774,-0.000884399 -0.000248503,-0.00212215 -0.000138889,-0.0017014 -0.000184505,-0.00406728 0.00036833,-0.00573872 0.000295481,-0.000894612 0.000760488,-0.00159042 0.00147876,-0.00187433 0,0 0.0100606,0.00489313 0.0168254,0 0,0 0.00307463,0.00486454 0.00308757,0.00775262 2.04249e-006,0.000412584 -5.85515e-005,0.000784998 -0.000199483,0.00109682l0.00204385 -0.00234682c0,-6.80831e-007 0,-6.80831e-007 0,0l0 0z"/>
    <path id="_272743544" class="fil0" d="M0.0176921 0.025924c0.00186207,0.00410405 0.00481007,0.00706294 0.00824554,0.00800385 -0.00343479,-0.000940908 -0.00638347,-0.00390048 -0.00824554,-0.00800385z"/>
    <path id="_272743472" class="fil0" d="M0.0390286 0.0182361c0.000140932,-0.000311821 0.000200845,-0.000684235 0.000199483,-0.00109682 1.36166e-006,0.000413264 -5.92323e-005,0.000785679 -0.000199483,0.00109682l0 0z"/>
    <path id="_272743400" class="fil0" d="M0.0271005 0.0341655c-0.000392839,-5.31048e-005 -0.000780232,-0.000132762 -0.00116286,-0.00023761 0.000382627,0.000104848 0.00077002,0.000184505 0.00116286,0.00023761z"/>
    <path id="_272743328" class="fil0" d="M0.0178357 0.0112609c-0.000552835,0.00167144 -0.000507219,0.00403733 -0.00036833,0.00573872 -0.000138209,-0.00170072 -0.000184505,-0.00406728 0.00036833,-0.00573872z"/>
    <path id="_272743256" class="fil0" d="M0.033985 0.0322864c0.00376636,-0.00275941 0.00646381,-0.00817269 0.00694379,-0.0145602 8.64655e-005,-0.000599812 0.000134124,-0.00121392 0.000142974,-0.00183688l0 0c-8.8508e-006,0.00062296 -5.6509e-005,0.00123707 -0.000142974,0.00183688 -0.000479986,0.00638756 -0.00317744,0.0118008 -0.00694379,0.0145602z"/>
    <path id="_272743184" class="fil0" d="M0.0177166 0.0191225c0,0 -0.00014774,-0.000885761 -0.000249184,-0.00212283 0.000100763,0.00123707 0.000248503,0.00212215 0.000249184,0.00212283 -0.000757084,-0.000529006 -0.00145221,-0.000804061 -0.00201934,-0.000946355 0.000261439,0.00283498 0.000960652,0.00546843 0.00199483,0.00774786 -0.00103418,-0.00227942 -0.0017334,-0.00491219 -0.00199415,-0.00774717 0.000566451,0.000141613 0.00126226,0.000417349 0.00201866,0.000945674z"/>
    <rect id="_272743064" class="fil0" x="0.0400495" y="0.0155068" width="0" height="0.00311241"/>
    <path id="_272743016" class="fil0" d="M0.0193145 0.0093873c0,0 0.0100606,0.00489313 0.0168254,0 0,0 0.00307463,0.00486386 0.00308757,0.00775194 -1.29358e-005,-0.00288808 -0.00308757,-0.00775262 -0.00308757,-0.00775262 -0.00676474,0.00489313 -0.0168254,0 -0.0168254,6.80831e-007 -0.000718277,0.000283226 -0.00118328,0.000979035 -0.00147876,0.00187365 0.000295481,-0.000893931 0.000760488,-0.00159042 0.00147876,-0.00187365z"/>
   </g>
   <g>
    <path id="_272742896" class="fil1" d="M0.0429638 0.100125c0.00192062,0.0022767 0.00329726,0.00502794 0.00392363,0.00805627 0.00220385,0.000182463 0.00393656,0.00202888 0.00393656,0.00427902 0,0.00237474 -0.00192539,0.00430013 -0.00429877,0.00430013 -0.00237474,0 -0.00429877,-0.00192539 -0.00429877,-0.00430013 0,-0.00200369 0.00137324,-0.00368261 0.00322986,-0.00415715 -0.000699213,-0.00326526 -0.00232776,-0.00621803 -0.00458744,-0.00854034 -0.000165442,-1.90633e-005 -0.000330884,-4.22115e-005 -0.000498368,-5.85515e-005 -7.76147e-005,0.00346815 -0.00521721,0.00626841 -0.0115489,0.00626841 -0.00633173,0 -0.0114713,-0.0027989 -0.0115483,-0.00626773 -0.000367649,3.40415e-005 -0.000731893,8.10189e-005 -0.00109341,0.000135485 -0.00249593,0.00284247 -0.00389367,0.00671844 -0.0040312,0.0113045 0.00364108,0.00031931 0.00653121,0.00482233 0.00653121,0.0103466l-0.00134668 0.0011438c0.000113699,0.000177697 0.000181101,0.000384669 0.000181101,0.000611386 0,0.000620237 -0.000502453,0.00112201 -0.00112201,0.00112201 -0.000619556,0 -0.00112133,-0.000501772 -0.00112133,-0.00112201 0,-0.000618875 0.000502453,-0.00112201 0.00112133,-0.00112201 0.000215823,0 0.000416668,6.33173e-005 0.0005896,0.00017225l0.00115673 -0.000804742c0,-0.00528393 -0.0028663,-0.00956772 -0.00640049,-0.00956772 -0.00353487,0 -0.00640049,0.00428515 -0.00640049,0.0095684l0.00105937 0.000734617c0.000140932,-6.33173e-005 0.000297523,-0.000102805 0.000463646,-0.000102805 0.000619556,0 0.00112269,0.000501772 0.00112269,0.00112065 0,0.000620237 -0.000503134,0.00112201 -0.00112269,0.00112201 -0.000620237,0 -0.00112269,-0.000501772 -0.00112269,-0.00112201 0,-0.000275737 0.000104848,-0.000526963 0.000271652,-0.000722362l-0.00121324 -0.00103146c0,-0.00521585 0.0025749,-0.00951938 0.00592731,-0.0102554 0.000149102,-0.00419392 0.0012609,-0.008027 0.00366968,-0.011039 -0.00826733,0.00206905 -0.0143934,0.00954253 -0.0143934,0.0184512 0,0.0105079 0.00851788,0.0104828 0.0190251,0.0104828l0.019593 0c0.0105079,0 0.0190251,2.58716e-005 0.0190251,-0.0104828 0,-0.0090108 -0.00626637,-0.0165571 -0.0146794,-0.0185234zm-0.00219772 0.0225934l-0.00287651 0 0 0.00287583 -0.00245235 0 0 -0.00287583 -0.00287651 0 0 -0.00245099 0.00287651 0 0 -0.00287855 0.00245235 0 0 0.00287651 0.00287651 0 0 0.00245303z"/>
    <path id="_272744832" class="fil1" d="M0.0426854 0.0778516c-0.00106686,-0.0073557 -0.00710379,-0.0129923 -0.0143914,-0.0129923 -0.00728898,0 -0.0133266,0.00563932 -0.0143907,0.0129984 -0.000109614,0.000757765 -0.000166804,0.00153527 -0.000166804,0.00232572 0,0.000321352 1.2255e-005,0.000638619 2.99566e-005,0.000955206 2.79141e-005,0.000462284 7.14872e-005,0.000919803 0.000136847,0.00136983 1.02125e-005,0.000137528 2.17866e-005,0.000274375 3.40415e-005,0.000410541 0.00091776,0.0103874 0.00699554,0.0184117 0.0143567,0.0184117 0.00745782,0 0.0135976,-0.00823397 0.0143914,-0.0188168 0.000109614,-0.000759807 0.000167484,-0.00153868 0.000167484,-0.00233116 0,-0.000792487 -5.78706e-005,-0.00157068 -0.000167484,-0.00233116zm-0.00161357 0.00289694c-8.8508e-006,0.00062296 -5.6509e-005,0.00123707 -0.000142974,0.00183688 -0.000479986,0.00638756 -0.00317744,0.0118008 -0.00694379,0.0145602 -0.00171229,0.00125409 -0.00364517,0.00196011 -0.00569107,0.00196011 -0.000402371,0 -0.000800657,-2.65524e-005 -0.0011935,-8.10189e-005 -0.000392839,-5.31048e-005 -0.000780232,-0.000132762 -0.00116286,-0.00023761 -0.00343547,-0.000940908 -0.00638415,-0.0038998 -0.00824554,-0.00800385 -0.00103486,-0.00227942 -0.00173408,-0.00491219 -0.00199483,-0.00774786 0.000567132,0.000142294 0.00126226,0.000417349 0.00201866,0.000945674 0,0 -0.00014774,-0.000884399 -0.000248503,-0.00212215 -0.000138889,-0.0017014 -0.000184505,-0.00406728 0.00036833,-0.00573872 0.000295481,-0.000894612 0.000760488,-0.00159042 0.00147876,-0.00187433 0,0 0.0100606,0.00489313 0.0168254,0 0,0 0.00307463,0.00486454 0.00308757,0.00775262 2.04249e-006,0.000412584 -5.85515e-005,0.000784998 -0.000199483,0.00109682l0.00204385 -0.00234682c0,-6.80831e-007 0,-6.80831e-007 0,0l0 0z"/>
    <path id="_272744760" class="fil2" d="M0.0176921 0.0907833c0.00186207,0.00410405 0.00481007,0.00706294 0.00824554,0.00800385 -0.00343479,-0.000940908 -0.00638347,-0.00390048 -0.00824554,-0.00800385z"/>
    <path id="_272744688" class="fil2" d="M0.0390286 0.0830954c0.000140932,-0.000311821 0.000200845,-0.000684235 0.000199483,-0.00109682 1.36166e-006,0.000413264 -5.92323e-005,0.000785679 -0.000199483,0.00109682l0 0z"/>
    <path id="_272744616" class="fil2" d="M0.0271005 0.0990248c-0.000392839,-5.31048e-005 -0.000780232,-0.000132762 -0.00116286,-0.00023761 0.000382627,0.000104848 0.00077002,0.000184505 0.00116286,0.00023761z"/>
    <path id="_272744544" class="fil2" d="M0.0178357 0.0761203c-0.000552835,0.00167144 -0.000507219,0.00403733 -0.00036833,0.00573872 -0.000138209,-0.00170072 -0.000184505,-0.00406728 0.00036833,-0.00573872z"/>
    <path id="_272744472" class="fil2" d="M0.033985 0.0971457c0.00376636,-0.00275941 0.00646381,-0.00817269 0.00694379,-0.0145602 8.64655e-005,-0.000599812 0.000134124,-0.00121392 0.000142974,-0.00183688l0 0c-8.8508e-006,0.00062296 -5.6509e-005,0.00123707 -0.000142974,0.00183688 -0.000479986,0.00638756 -0.00317744,0.0118008 -0.00694379,0.0145602z"/>
    <path id="_272744400" class="fil2" d="M0.0177166 0.0839818c0,0 -0.00014774,-0.000885761 -0.000249184,-0.00212283 0.000100763,0.00123707 0.000248503,0.00212215 0.000249184,0.00212283 -0.000757084,-0.000529006 -0.00145221,-0.000804061 -0.00201934,-0.000946355 0.000261439,0.00283498 0.000960652,0.00546843 0.00199483,0.00774786 -0.00103418,-0.00227942 -0.0017334,-0.00491219 -0.00199415,-0.00774717 0.000566451,0.000141613 0.00126226,0.000417349 0.00201866,0.000945674z"/>
    <rect id="_272744280" class="fil2" x="0.0400495" y="0.0803662" width="0" height="0.00311241"/>
    <path id="_272744256" class="fil2" d="M0.0193145 0.0742466c0,0 0.0100606,0.00489313 0.0168254,0 0,0 0.00307463,0.00486386 0.00308757,0.00775194 -1.29358e-005,-0.00288808 -0.00308757,-0.00775262 -0.00308757,-0.00775262 -0.00676474,0.00489313 -0.0168254,0 -0.0168254,6.80831e-007 -0.000718277,0.000283226 -0.00118328,0.000979035 -0.00147876,0.00187365 0.000295481,-0.000893931 0.000760488,-0.00159042 0.00147876,-0.00187365z"/>
   </g>
  </g>
 </g>
</svg>
