<?xml version="1.0" encoding="UTF-8"?>
<!DOCTYPE svg PUBLIC "-//W3C//DTD SVG 1.1//EN" "http://www.w3.org/Graphics/SVG/1.1/DTD/svg11.dtd">
<!-- Creator: CorelDRAW X5 -->
<svg xmlns="http://www.w3.org/2000/svg" xml:space="preserve" width="0.333331in" height="0.74715in" style="shape-rendering:geometricPrecision; text-rendering:geometricPrecision; image-rendering:optimizeQuality; fill-rule:evenodd; clip-rule:evenodd"
viewBox="0 0 0.101845 0.228283"
 xmlns:xlink="http://www.w3.org/1999/xlink"
 version="1.1"
 enable-background="new 0 0 100 100">
 <defs>
  <style type="text/css">
   <![CDATA[
    .fil2 {fill:#FEFEFE}
    .fil1 {fill:#252525}
    .fil0 {fill:white}
   ]]>
  </style>
 </defs>
 <g id="Layer_x0020_1">
  <metadata id="CorelCorpID_0Corel-Layer"/>
  <g id="_235951792">
   <g>
    <path id="_236060264" class="fil0" d="M0.0605207 0.139917c-0.0155199,0 -0.0308991,0 -0.0462939,0 0,0.00270895 0,0.00523025 0,0.0078189 0.0154754,0 0.0308654,0 0.0462939,0 0,-0.00266204 0,-0.00519296 0,-0.0078189z"/>
    <path id="_236060336" class="fil0" d="M0.014234 0.170947c0.0155211,0 0.0308787,0 0.0462506,0 0,-0.00269692 0,-0.00526994 0,-0.00793077 -0.0154369,0 -0.0307981,0 -0.0462506,0 0,0.00267888 0,0.0052531 0,0.00793077z"/>
    <path id="_236060408" class="fil1" d="M0.0757147 0.114702c0.000453496,0.000193668 0.000899775,0.000404177 0.00135688,0.00057499 0.00369654,0.00138575 0.00626234,0.0049644 0.00627918,0.00930329 6.37541e-005,0.0160829 2.6464e-005,0.0321646 2.16523e-005,0.0482462 0,9.38268e-005 -6.13483e-005,0.000191262 -5.05221e-005,0.000152769 -0.0022747,-0.00100202 -0.00455782,-0.00197397 -0.00680124,-0.00304576 -0.000269451,-0.000127508 -0.000467931,-0.000784296 -0.000476352,-0.0011993 -4.69134e-005,-0.00220974 -2.16523e-005,-0.00442189 -2.16523e-005,-0.00663043 0,-0.011993 0,-0.023986 0,-0.0359778 0,-0.00287375 -0.000477555,-0.00342348 -0.00299163,-0.00342348 -0.0208849,-1.20291e-006 -0.0417662,-1.20291e-006 -0.0626511,0 -0.00253693,0 -0.00299163,0.000522062 -0.00299163,0.00339822 0,0.0285173 0,0.0570347 0,0.0855508 0,0.00316124 0.000342829,0.00354978 0.00312275,0.00355219 0.0217245,1.44349e-005 0.0434503,0.000113073 0.0651748,-6.85658e-005 0.00247559,-1.92465e-005 0.00363278,0.00136891 0.00498846,0.00293991 0.000229755,0.000265843 0.000236973,0.00102247 7.57832e-005,0.00141823 -0.000922631,0.0022735 -0.00259708,0.00340784 -0.00478637,0.00359068 -0.00108502,9.02181e-005 -0.00217726,8.90152e-005 -0.00326349,8.90152e-005 -0.0203893,4.81163e-006 -0.0407798,-0.000107059 -0.0611679,7.21745e-005 -0.0057475,5.05221e-005 -0.00977964,-0.00201247 -0.0115323,-0.00839991 0,-0.0305058 0,-0.0610127 0,-0.0915197 0.000694078,-0.00278233 0.00181519,-0.00528558 0.00410793,-0.00681929 0.00112352,-0.000753021 0.00240341,-0.00121133 0.00361233,-0.00180196 0.0226652,-2.40582e-006 0.0453304,-2.40582e-006 0.0679944,-2.40582e-006z"/>
    <path id="_236060480" class="fil1" d="M0.101845 0.221807c-0.00204976,0.00212794 -0.00409711,0.00425709 -0.00623347,0.00647646 -0.000418612,-0.000422221 -0.000822789,-0.000807151 -0.0012005,-0.00122095 -0.00538422,-0.00585696 -0.0107829,-0.0116971 -0.016125,-0.0175985 -0.000789108,-0.000873311 -0.00136771,-0.00101766 -0.00240461,-0.000501613 -0.00957034,0.00476472 -0.0204891,-0.00120171 -0.0228348,-0.01242 -0.00202931,-0.00971108 0.00392028,-0.0196062 0.0128795,-0.0214202 0.0105122,-0.00212915 0.0199923,0.00669659 0.0194895,0.018354 -0.00010345,0.00240461 -0.00108382,0.00475871 -0.00159746,0.00715249 -0.000104653,0.000477555 -9.98414e-005,0.00123539 0.000157581,0.00151807 0.00584012,0.00644157 0.0117223,0.0128338 0.0175998,0.0192297 6.13483e-005,6.616e-005 0.000176828,6.85658e-005 0.000268249,0.000101044 1.20291e-006,0.000109465 1.20291e-006,0.000217726 1.20291e-006,0.000329597zm-0.0328202 -0.018526c0.0055418,1.68407e-005 0.00992881,-0.00466127 0.00990595,-0.0105603 -2.28553e-005,-0.00590989 -0.00444354,-0.0107239 -0.0098446,-0.0107191 -0.00543835,4.81163e-006 -0.00978686,0.00477795 -0.00977724,0.010736 6.01454e-006,0.00594237 0.00423183,0.0105267 0.00971589,0.0105435z"/>
    <path id="_236060168" class="fil1" d="M0.0605207 0.139917c0,0.00262595 0,0.00515687 0,0.0078189 -0.0154285,0 -0.0308185,0 -0.0462939,0 0,-0.00258866 0,-0.00510995 0,-0.0078189 0.0153948,0 0.030774,0 0.0462939,0z"/>
    <path id="_236510168" class="fil1" d="M0.014234 0.170947c0,-0.00267767 0,-0.00525069 0,-0.00793077 0.0154526,0 0.0308137,0 0.0462506,0 0,0.00266083 0,0.00523385 0,0.00793077 -0.015372,0 -0.0307295,0 -0.0462506,0z"/>
   </g>
  </g>
  <g id="_236818248">
   <g>
    <path id="_236818992" class="fil2" d="M0.0605207 0.0252154c-0.0155199,0 -0.0308991,0 -0.0462939,0 0,0.00270895 0,0.00523025 0,0.0078189 0.0154754,0 0.0308654,0 0.0462939,0 0,-0.00266204 0,-0.00519296 0,-0.0078189z"/>
    <path id="_236818968" class="fil2" d="M0.014234 0.0562444c0.0155211,0 0.0308787,0 0.0462506,0 0,-0.00269692 0,-0.00526994 0,-0.00793077 -0.0154369,0 -0.0307981,0 -0.0462506,0 0,0.00267888 0,0.0052531 0,0.00793077z"/>
    <path id="_236818032" class="fil2" d="M0.0757147 0c0.000453496,0.000193668 0.000899775,0.000404177 0.00135688,0.00057499 0.00369654,0.00138575 0.00626234,0.0049644 0.00627918,0.00930329 6.37541e-005,0.0160829 2.6464e-005,0.0321646 2.16523e-005,0.0482462 0,9.38268e-005 -6.13483e-005,0.000191262 -5.05221e-005,0.000152769 -0.0022747,-0.00100202 -0.00455782,-0.00197397 -0.00680124,-0.00304576 -0.000269451,-0.000127508 -0.000467931,-0.000784296 -0.000476352,-0.0011993 -4.69134e-005,-0.00220974 -2.16523e-005,-0.00442189 -2.16523e-005,-0.00663043 0,-0.011993 0,-0.023986 0,-0.0359778 0,-0.00287375 -0.000477555,-0.00342348 -0.00299163,-0.00342348 -0.0208849,-1.20291e-006 -0.0417662,-1.20291e-006 -0.0626511,0 -0.00253693,0 -0.00299163,0.000522062 -0.00299163,0.00339822 0,0.0285173 0,0.0570347 0,0.0855508 0,0.00316124 0.000342829,0.00354978 0.00312275,0.00355219 0.0217245,1.44349e-005 0.0434503,0.000113073 0.0651748,-6.85658e-005 0.00247559,-1.92465e-005 0.00363278,0.00136891 0.00498846,0.00293991 0.000229755,0.000265843 0.000236973,0.00102247 7.57832e-005,0.00141823 -0.000922631,0.0022735 -0.00259708,0.00340784 -0.00478637,0.00359068 -0.00108502,9.02181e-005 -0.00217726,8.90152e-005 -0.00326349,8.90152e-005 -0.0203893,4.81163e-006 -0.0407798,-0.000107059 -0.0611679,7.21745e-005 -0.0057475,5.05221e-005 -0.00977964,-0.00201247 -0.0115323,-0.00839991 0,-0.0305058 0,-0.0610127 0,-0.0915197 0.000694078,-0.00278233 0.00181519,-0.00528558 0.00410793,-0.00681929 0.00112352,-0.000753021 0.00240341,-0.00121133 0.00361233,-0.00180196 0.0226652,-2.40582e-006 0.0453304,-2.40582e-006 0.0679944,-2.40582e-006z"/>
    <path id="_236819160" class="fil2" d="M0.101845 0.107105c-0.00204976,0.00212794 -0.00409711,0.00425709 -0.00623347,0.00647646 -0.000418612,-0.000422221 -0.000822789,-0.000807151 -0.0012005,-0.00122095 -0.00538422,-0.00585696 -0.0107829,-0.0116971 -0.016125,-0.0175985 -0.000789108,-0.000873311 -0.00136771,-0.00101766 -0.00240461,-0.000501613 -0.00957034,0.00476472 -0.0204891,-0.00120171 -0.0228348,-0.01242 -0.00202931,-0.00971108 0.00392028,-0.0196062 0.0128795,-0.0214202 0.0105122,-0.00212915 0.0199923,0.00669659 0.0194895,0.018354 -0.00010345,0.00240461 -0.00108382,0.00475871 -0.00159746,0.00715249 -0.000104653,0.000477555 -9.98414e-005,0.00123539 0.000157581,0.00151807 0.00584012,0.00644157 0.0117223,0.0128338 0.0175998,0.0192297 6.13483e-005,6.616e-005 0.000176828,6.85658e-005 0.000268249,0.000101044 1.20291e-006,0.000109465 1.20291e-006,0.000217726 1.20291e-006,0.000329597zm-0.0328202 -0.018526c0.0055418,1.68407e-005 0.00992881,-0.00466127 0.00990595,-0.0105603 -2.28553e-005,-0.00590989 -0.00444354,-0.0107239 -0.0098446,-0.0107191 -0.00543835,4.81163e-006 -0.00978686,0.00477795 -0.00977724,0.010736 6.01454e-006,0.00594237 0.00423183,0.0105267 0.00971589,0.0105435z"/>
    <path id="_236819256" class="fil2" d="M0.0605207 0.0252154c0,0.00262595 0,0.00515687 0,0.0078189 -0.0154285,0 -0.0308185,0 -0.0462939,0 0,-0.00258866 0,-0.00510995 0,-0.0078189 0.0153948,0 0.030774,0 0.0462939,0z"/>
    <path id="_236819424" class="fil2" d="M0.014234 0.0562444c0,-0.00267767 0,-0.00525069 0,-0.00793077 0.0154526,0 0.0308137,0 0.0462506,0 0,0.00266083 0,0.00523385 0,0.00793077 -0.015372,0 -0.0307295,0 -0.0462506,0z"/>
   </g>
  </g>
 </g>
</svg>
