<?xml version="1.0" encoding="UTF-8"?>
<!DOCTYPE svg PUBLIC "-//W3C//DTD SVG 1.1//EN" "http://www.w3.org/Graphics/SVG/1.1/DTD/svg11.dtd">
<!-- Creator: CorelDRAW X5 -->
<svg xmlns="http://www.w3.org/2000/svg" xml:space="preserve" width="0.116661in" height="0.246366in" style="shape-rendering:geometricPrecision; text-rendering:geometricPrecision; image-rendering:optimizeQuality; fill-rule:evenodd; clip-rule:evenodd"
viewBox="0 0 0.0128026 0.0270366"
 xmlns:xlink="http://www.w3.org/1999/xlink">
 <defs>
  <style type="text/css">
   <![CDATA[
    .fil0 {fill:#FEFEFE}
    .fil1 {fill:#252525}
   ]]>
  </style>
 </defs>
 <g id="Layer_x0020_1">
  <metadata id="CorelCorpID_0Corel-Layer"/>
  <g id="_232361976">
   <path id="_232362168" class="fil0" d="M0.0087128 0.00772598c-0.000247999,0.00033657 -0.000561238,0.000625614 -0.000922003,0.000838616 -0.000709,0.000448904 -0.00162711,0.000497726 -0.00239919,0.000185351 -0.000518897,-0.000209546 -0.000980762,-0.000565558 -0.00131085,-0.00101921 -0.000505071,0.000198313 -0.00196541,0.000778993 -0.0024182,0.00108445 -0.000550436,0.000369406 -0.000892623,0.000786338 -0.00118556,0.00142146 -0.000293364,0.000635551 -0.000476987,0.00137436 -0.000476987,0.0020475 0,8.12261e-005 5.09823e-005,0.000161588 0.000124431,0.000194424 0.00172821,0.000773376 0.00490165,0.000861947 0.00627688,0.000861947 0.00183191,0 0.00465797,-0.000136529 0.00627688,-0.000861947 7.34491e-005,-3.28361e-005 0.000124431,-0.000113198 0.000124431,-0.000194424 0,-0.00067314 -0.000183623,-0.00141195 -0.000476987,-0.0020475 -0.000292932,-0.000635119 -0.000630366,-0.00105205 -0.0011808,-0.00142146 -0.000455385,-0.000306326 -0.00193301,-0.000893487 -0.00243203,-0.00108921zm-0.00231149 -0.00772598c-0.00188851,0 -0.00346723,0.00127456 -0.00365042,0.00293148 -0.000335274,4.75259e-006 -0.000648513,0.000230717 -0.000648513,0.000570311l0 0.00180166c0,0.000342187 0.00031972,0.000574199 0.000658018,0.000574199l0.000129184 0c3.80207e-005,1.72821e-006 7.38812e-005,-9.50518e-006 0.000107149,-2.72194e-005 9.46198e-005,-2.24668e-005 0.000172389,-0.00011579 0.000171525,-0.000213867l0 -0.00248258c5.70311e-005,-0.0014962 0.00146769,-0.00272367 0.00323306,-0.00272367 0.00176537,0 0.00318078,0.00122746 0.00323781,0.00272367l0 0.00248258c-8.64107e-007,9.80762e-005 7.2153e-005,0.0001914 0.000166773,0.000213867 3.32681e-005,1.77142e-005 6.91286e-005,2.89476e-005 0.000107149,2.72194e-005l0.000129184 0c0.000338298,0 0.000658018,-0.000232013 0.000658018,-0.000574199l0 -0.00180166c0,-0.000339594 -0.000313239,-0.000565558 -0.000648513,-0.000570311 -0.000183191,-0.00165693 -0.00176192,-0.00293148 -0.00365042,-0.00293148zm0 0.00104643c-0.00178395,0 -0.00266102,0.00106674 -0.00271891,0.00272842 -1.72821e-006,0.000116655 0,0.000287748 0,0.000287748 -1.68501e-005,7.77697e-006 -3.54284e-005,1.20975e-005 -5.14144e-005,2.24668e-005 -7.12889e-005,5.05503e-005 -0.000118815,0.00012616 -0.000147762,0.000199177 -5.87593e-005,0.000146898 -6.48081e-005,0.000308486 -6.48081e-005,0.000514576 0,0.000651537 0.000373294,0.00127153 0.000745293,0.00163489 2.33309e-005,8.55466e-005 4.88221e-005,0.000167637 7.86338e-005,0.000250591 0.000329225,0.000211274 0.000747885,0.000294661 0.00127369,0.000277811 7.94979e-005,-0.000220779 0.000289908,-0.000379775 0.000537475,-0.000379775 0.000316263,0 0.000575064,0.000253616 0.000575064,0.000569447 0,0.000316263 -0.0002588,0.000574199 -0.000575064,0.000574199 -0.000207818,0 -0.000390145,-0.000111038 -0.000490813,-0.000277811 -0.000343483,1.25296e-005 -0.000667523,-1.12334e-005 -0.000963048,-8.77069e-005 0.000417796,0.000581544 0.00105075,0.000959159 0.00180166,0.000959159 0.00110044,0 0.00194554,-0.000808373 0.00223761,-0.00188591 0.000371998,-0.000363357 0.000745293,-0.000983354 0.000745293,-0.00163489 0,-0.00020609 -6.04875e-006,-0.000367678 -6.48081e-005,-0.000514576 -2.89476e-005,-7.30171e-005 -7.64735e-005,-0.000148626 -0.000147762,-0.000199177 -1.5986e-005,-1.03693e-005 -2.98117e-005,-1.46898e-005 -4.66618e-005,-2.24668e-005 0,0 -3.02438e-006,-0.000171093 -4.75259e-006,-0.000287748 -5.78952e-005,-0.00166168 -0.000934964,-0.00272842 -0.00271891,-0.00272842z" display="inline"/>
   <path id="_232362024" class="fil1" d="M0.0087128 0.0214221c-0.000247999,0.00033657 -0.000561238,0.000625614 -0.000922003,0.000838616 -0.000709,0.000448904 -0.00162711,0.000497726 -0.00239919,0.000185351 -0.000518897,-0.000209546 -0.000980762,-0.000565558 -0.00131085,-0.00101921 -0.000505071,0.000198313 -0.00196541,0.000778993 -0.0024182,0.00108445 -0.000550436,0.000369406 -0.000892623,0.000786338 -0.00118556,0.00142146 -0.000293364,0.000635551 -0.000476987,0.00137436 -0.000476987,0.0020475 0,8.12261e-005 5.09823e-005,0.000161588 0.000124431,0.000194424 0.00172821,0.000773376 0.00490165,0.000861947 0.00627688,0.000861947 0.00183191,0 0.00465797,-0.000136529 0.00627688,-0.000861947 7.34491e-005,-3.28361e-005 0.000124431,-0.000113198 0.000124431,-0.000194424 0,-0.00067314 -0.000183623,-0.00141195 -0.000476987,-0.0020475 -0.000292932,-0.000635119 -0.000630366,-0.00105205 -0.0011808,-0.00142146 -0.000455385,-0.000306326 -0.00193301,-0.000893487 -0.00243203,-0.00108921zm-0.00231149 -0.00772598c-0.00188851,0 -0.00346723,0.00127456 -0.00365042,0.00293148 -0.000335274,4.75259e-006 -0.000648513,0.000230717 -0.000648513,0.000570311l0 0.00180166c0,0.000342187 0.00031972,0.000574199 0.000658018,0.000574199l0.000129184 0c3.80207e-005,1.72821e-006 7.38812e-005,-9.50518e-006 0.000107149,-2.72194e-005 9.46198e-005,-2.24668e-005 0.000172389,-0.00011579 0.000171525,-0.000213867l0 -0.00248258c5.70311e-005,-0.0014962 0.00146769,-0.00272367 0.00323306,-0.00272367 0.00176537,0 0.00318078,0.00122746 0.00323781,0.00272367l0 0.00248258c-8.64107e-007,9.80762e-005 7.2153e-005,0.0001914 0.000166773,0.000213867 3.32681e-005,1.77142e-005 6.91286e-005,2.89476e-005 0.000107149,2.72194e-005l0.000129184 0c0.000338298,0 0.000658018,-0.000232013 0.000658018,-0.000574199l0 -0.00180166c0,-0.000339594 -0.000313239,-0.000565558 -0.000648513,-0.000570311 -0.000183191,-0.00165693 -0.00176192,-0.00293148 -0.00365042,-0.00293148zm0 0.00104643c-0.00178395,0 -0.00266102,0.00106674 -0.00271891,0.00272842 -1.72821e-006,0.000116655 0,0.000287748 0,0.000287748 -1.68501e-005,7.77697e-006 -3.54284e-005,1.20975e-005 -5.14144e-005,2.24668e-005 -7.12889e-005,5.05503e-005 -0.000118815,0.00012616 -0.000147762,0.000199177 -5.87593e-005,0.000146898 -6.48081e-005,0.000308486 -6.48081e-005,0.000514576 0,0.000651537 0.000373294,0.00127153 0.000745293,0.00163489 2.33309e-005,8.55466e-005 4.88221e-005,0.000167637 7.86338e-005,0.000250591 0.000329225,0.000211274 0.000747885,0.000294661 0.00127369,0.000277811 7.94979e-005,-0.000220779 0.000289908,-0.000379775 0.000537475,-0.000379775 0.000316263,0 0.000575064,0.000253616 0.000575064,0.000569447 0,0.000316263 -0.0002588,0.000574199 -0.000575064,0.000574199 -0.000207818,0 -0.000390145,-0.000111038 -0.000490813,-0.000277811 -0.000343483,1.25296e-005 -0.000667523,-1.12334e-005 -0.000963048,-8.77069e-005 0.000417796,0.000581544 0.00105075,0.000959159 0.00180166,0.000959159 0.00110044,0 0.00194554,-0.000808373 0.00223761,-0.00188591 0.000371998,-0.000363357 0.000745293,-0.000983354 0.000745293,-0.00163489 0,-0.00020609 -6.04875e-006,-0.000367678 -6.48081e-005,-0.000514576 -2.89476e-005,-7.30171e-005 -7.64735e-005,-0.000148626 -0.000147762,-0.000199177 -1.5986e-005,-1.03693e-005 -2.98117e-005,-1.46898e-005 -4.66618e-005,-2.24668e-005 0,0 -3.02438e-006,-0.000171093 -4.75259e-006,-0.000287748 -5.78952e-005,-0.00166168 -0.000934964,-0.00272842 -0.00271891,-0.00272842z" display="inline"/>
  </g>
 </g>
</svg>
