<?xml version="1.0" encoding="UTF-8"?>
<!DOCTYPE svg PUBLIC "-//W3C//DTD SVG 1.1//EN" "http://www.w3.org/Graphics/SVG/1.1/DTD/svg11.dtd">
<!-- Creator: CorelDRAW X5 -->
<svg xmlns="http://www.w3.org/2000/svg" xml:space="preserve" width="0.0433307in" height="0.124287in" style="shape-rendering:geometricPrecision; text-rendering:geometricPrecision; image-rendering:optimizeQuality; fill-rule:evenodd; clip-rule:evenodd"
viewBox="0 0 0.00226803 0.00650548"
 xmlns:xlink="http://www.w3.org/1999/xlink">
 <defs>
  <style type="text/css">
   <![CDATA[
    .fil1 {fill:#252525}
    .fil0 {fill:#30C165}
   ]]>
  </style>
 </defs>
 <g id="Layer_x0020_1">
  <metadata id="CorelCorpID_0Corel-Layer"/>
  <g id="_249248080">
   <path id="_245633216" class="fil0" d="M0.000484063 0.00182085l0.000628313 0c3.81233e-005,0 6.9034e-005,-3.09108e-005 6.9034e-005,-6.9034e-005l-6.18215e-007 -0.000205247c-6.18215e-006,-0.000135801 -0.000121788,-0.000246462 -0.000258208,-0.000246462l-5.35787e-006 0c6.71794e-005,-4.05961e-005 0.000112721,-0.000113752 0.000112721,-0.000197829 0,-0.000127352 -0.000104066,-0.000231213 -0.000231625,-0.000231213 -0.000127764,0 -0.000231625,0.00010386 -0.000231625,0.000231213 0,8.40773e-005 4.53358e-005,0.000157233 0.000112721,0.000197829l-5.77001e-006 0c-0.000136213,0 -0.00025182,0.000110661 -0.000257384,0.000240074l-1.23643e-006 0.000211636c0,3.81233e-005 3.11168e-005,6.9034e-005 6.9034e-005,6.9034e-005zm0.000314259 -0.000854992c7.54223e-005,0 0.000136832,6.12033e-005 0.000136832,0.00013642 0,7.54223e-005 -6.14094e-005,0.000137038 -0.000136832,0.000137038 -7.54223e-005,0 -0.000136832,-6.16155e-005 -0.000136832,-0.000137038 0,-7.52162e-005 6.14094e-005,-0.00013642 0.000136832,-0.00013642zm-0.000288088 0.00058545c3.91536e-006,-8.6138e-005 7.70708e-005,-0.000156408 0.000163415,-0.000156408l0.000248935 0c8.63441e-005,0 0.000159706,6.98583e-005 0.000164033,0.000158263l0 0.000172894 -0.000576589 0 2.06072e-007 -0.000174749zm0.00166279 -0.00115277l-0.000368456 0 0 -0.00016053c0,-2.61711e-005 -2.12254e-005,-4.73965e-005 -4.73965e-005,-4.73965e-005l-0.000361038 0c-2.47286e-005,-0.0001086 -0.000132916,-0.000190616 -0.000262123,-0.000190616 -0.000129413,0 -0.000237395,8.20166e-005 -0.000262329,0.000190616l-0.000360832 0c-2.61711e-005,0 -4.73965e-005,2.12254e-005 -4.73965e-005,4.73965e-005l0 0.00016053 -0.000368662 0c-5.23422e-005,0 -9.4793e-005,4.24508e-005 -9.4793e-005,9.49991e-005l0 0.00257837c0,5.23422e-005 4.24508e-005,9.4793e-005 9.4793e-005,9.4793e-005l0.00207823 0c5.25483e-005,0 9.4793e-005,-4.24508e-005 9.4793e-005,-9.4793e-005l0 -0.00257858c2.06072e-007,-5.23422e-005 -4.22447e-005,-9.4793e-005 -9.4793e-005,-9.4793e-005zm-0.00103901 -0.00030375c7.52162e-005,0 0.000138686,4.0184e-005 0.000162385,9.58234e-005l-0.000324769 0c2.36983e-005,-5.56394e-005 8.71684e-005,-9.58234e-005 0.000162385,-9.58234e-005zm-0.000575764 0.000190616l0.00115153 0 0 0.000328891 -0.00115153 0 0 -0.000328891zm0.00151999 0.0026915l-0.00188865 0 0 -0.00238858 0.000273869 0 0 7.33615e-005c0,2.63772e-005 2.12254e-005,4.73965e-005 4.73965e-005,4.73965e-005l0.00124632 0c2.61711e-005,0 4.73965e-005,-2.10193e-005 4.73965e-005,-4.73965e-005l0 -7.33615e-005 0.000273663 0 0 0.00238858zm-0.000750925 -0.00204877l0.000491893 0 0 9.4793e-005 -0.000491893 0 0 -9.4793e-005zm0 0.000278403l0.000491893 0 0 9.4793e-005 -0.000491893 0 0 -9.4793e-005zm0 0.000278609l0.000491893 0 0 9.4793e-005 -0.000491893 0 0 -9.4793e-005zm0 0.000278403l0.000491893 0 0 9.4793e-005 -0.000491893 0 0 -9.4793e-005zm-0.000931444 0.000278609l0.00142334 0 0 9.4793e-005 -0.00142334 0 0 -9.4793e-005zm0 0.000278609l0.00142334 0 0 9.45869e-005 -0.00142334 0 0 -9.45869e-005zm0 0.000278403l0.00142334 0 0 9.4793e-005 -0.00142334 0 0 -9.4793e-005z"/>
   <path id="_245498560" class="fil1" d="M0.000484063 0.00515962l0.000628313 0c3.81233e-005,0 6.9034e-005,-3.09108e-005 6.9034e-005,-6.9034e-005l-6.18215e-007 -0.000205247c-6.18215e-006,-0.000135801 -0.000121788,-0.000246462 -0.000258208,-0.000246462l-5.35787e-006 0c6.71794e-005,-4.05961e-005 0.000112721,-0.000113752 0.000112721,-0.000197829 0,-0.000127352 -0.000104066,-0.000231213 -0.000231625,-0.000231213 -0.000127764,0 -0.000231625,0.00010386 -0.000231625,0.000231213 0,8.40773e-005 4.53358e-005,0.000157233 0.000112721,0.000197829l-5.77001e-006 0c-0.000136213,0 -0.00025182,0.000110661 -0.000257384,0.000240074l-1.23643e-006 0.000211636c0,3.81233e-005 3.11168e-005,6.9034e-005 6.9034e-005,6.9034e-005zm0.000314259 -0.000854992c7.54223e-005,0 0.000136832,6.12033e-005 0.000136832,0.00013642 0,7.54223e-005 -6.14094e-005,0.000137038 -0.000136832,0.000137038 -7.54223e-005,0 -0.000136832,-6.16155e-005 -0.000136832,-0.000137038 0,-7.52162e-005 6.14094e-005,-0.00013642 0.000136832,-0.00013642zm-0.000288088 0.00058545c3.91536e-006,-8.6138e-005 7.70708e-005,-0.000156408 0.000163415,-0.000156408l0.000248935 0c8.63441e-005,0 0.000159706,6.98583e-005 0.000164033,0.000158263l0 0.000172894 -0.000576589 0 2.06072e-007 -0.000174749zm0.00166279 -0.00115277l-0.000368456 0 0 -0.00016053c0,-2.61711e-005 -2.12254e-005,-4.73965e-005 -4.73965e-005,-4.73965e-005l-0.000361038 0c-2.47286e-005,-0.0001086 -0.000132916,-0.000190616 -0.000262123,-0.000190616 -0.000129413,0 -0.000237395,8.20166e-005 -0.000262329,0.000190616l-0.000360832 0c-2.61711e-005,0 -4.73965e-005,2.12254e-005 -4.73965e-005,4.73965e-005l0 0.00016053 -0.000368662 0c-5.23422e-005,0 -9.4793e-005,4.24508e-005 -9.4793e-005,9.49991e-005l0 0.00257837c0,5.23422e-005 4.24508e-005,9.4793e-005 9.4793e-005,9.4793e-005l0.00207823 0c5.25483e-005,0 9.4793e-005,-4.24508e-005 9.4793e-005,-9.4793e-005l0 -0.00257858c2.06072e-007,-5.23422e-005 -4.22447e-005,-9.4793e-005 -9.4793e-005,-9.4793e-005zm-0.00103901 -0.00030375c7.52162e-005,0 0.000138686,4.0184e-005 0.000162385,9.58234e-005l-0.000324769 0c2.36983e-005,-5.56394e-005 8.71684e-005,-9.58234e-005 0.000162385,-9.58234e-005zm-0.000575764 0.000190616l0.00115153 0 0 0.000328891 -0.00115153 0 0 -0.000328891zm0.00151999 0.0026915l-0.00188865 0 0 -0.00238858 0.000273869 0 0 7.33615e-005c0,2.63772e-005 2.12254e-005,4.73965e-005 4.73965e-005,4.73965e-005l0.00124632 0c2.61711e-005,0 4.73965e-005,-2.10193e-005 4.73965e-005,-4.73965e-005l0 -7.33615e-005 0.000273663 0 0 0.00238858zm-0.000750925 -0.00204877l0.000491893 0 0 9.4793e-005 -0.000491893 0 0 -9.4793e-005zm0 0.000278403l0.000491893 0 0 9.4793e-005 -0.000491893 0 0 -9.4793e-005zm0 0.000278609l0.000491893 0 0 9.4793e-005 -0.000491893 0 0 -9.4793e-005zm0 0.000278403l0.000491893 0 0 9.4793e-005 -0.000491893 0 0 -9.4793e-005zm-0.000931444 0.000278609l0.00142334 0 0 9.4793e-005 -0.00142334 0 0 -9.4793e-005zm0 0.000278609l0.00142334 0 0 9.45869e-005 -0.00142334 0 0 -9.45869e-005zm0 0.000278403l0.00142334 0 0 9.4793e-005 -0.00142334 0 0 -9.4793e-005z"/>
  </g>
 </g>
</svg>
